<!-- Generator: Adobe Illustrator 19.1.0, SVG Export Plug-In  -->
<svg version="1.1"
	 xmlns="http://www.w3.org/2000/svg" xmlns:xlink="http://www.w3.org/1999/xlink" xmlns:a="http://ns.adobe.com/AdobeSVGViewerExtensions/3.0/"
	 x="0px" y="0px" width="224.5px" height="336.7px" viewBox="0 0 224.5 336.7" enable-background="new 0 0 224.5 336.7"
	 xml:space="preserve">
<defs>
</defs>
<g>
	<g>
		<path fill="#3BAEB5" d="M81.8,126.3c18.5,0,33.6-15.1,33.6-33.6c0-18.5-15.1-33.6-33.6-33.6c-18.5,0-33.6,15.1-33.6,33.6
			C48.2,111.2,63.3,126.3,81.8,126.3z"/>
		<path fill="#3BAEB5" d="M187.3,84.2c-0.2,0-0.4,0-0.6,0.1L129.1,95c-1.8,0.3-3.7,2-4.3,3.7l-4.9,13.7c-0.3,0.9-0.3,1.8,0.2,2.7
			c0.4,0.8,1.2,1.4,2.1,1.6l2,0.5c3.4,7.6,6.6,16.1,8.4,22.8c-5.8-1.6-12.8-4-18.9-6.6c-1.3-0.6-3.8-1.2-5.3-1.2h-51
			C45,121.1,33.1,110,28.8,104.9c1.2-5.1,6.8-16.1,12.6-24.7c2.1-3.2,2.9-7,2.2-10.7c-0.7-3.8-2.8-7-6-9.1c-2.4-1.6-5.2-2.5-8-2.5
			c-4.7,0-9.2,2.3-11.8,6.3c-0.2,0.3-5.4,7.9-10,17c-8.1,16-9.8,26.9-5.5,35.5c1.3,2.6,3.8,7.4,27.8,29.5
			c6.7,6.1,13.1,11.8,17.2,15.4v160c0,8.3,6.8,15.1,15.1,15.1c8.3,0,15.1-6.8,15.1-15.1v-86.3h8.6v86.3c0,8.3,6.8,15.1,15.1,15.1
			s15.1-6.8,15.1-15.1l-0.1-156.7c1.9,0.7,4,1.3,6.1,1.9c6.5,1.9,11.9,3,16.4,3.3c0.8,0.1,1.7,0.1,2.5,0.1
			c12.2,0,17.2-6.4,19.2-10.3c3.8-7.5,3.2-17.7-2-33.6l28.4,7.5c0.3,0.1,0.6,0.1,0.9,0.1c1.6,0,2.7-1.2,2.7-2.9V87.3
			C190.3,85.5,189,84.2,187.3,84.2z"/>
		<path fill="#3BAEB5" d="M203.6,94c0.5,0,1-0.1,1.4-0.3l16.8-6.2c2.1-0.8,3.2-3.2,2.4-5.3c-0.8-2.1-3.2-3.2-5.3-2.4L202.2,86
			c-2.1,0.8-3.2,3.2-2.4,5.3C200.4,93,201.9,94,203.6,94z"/>
		<path fill="#3BAEB5" d="M203.6,112.2h16.8c2.3,0,4.1-1.8,4.1-4.1c0-2.3-1.8-4.1-4.1-4.1h-16.8c-2.3,0-4.1,1.8-4.1,4.1
			C199.5,110.4,201.3,112.2,203.6,112.2z"/>
		<path fill="#3BAEB5" d="M221.8,128.7l-16.8-6.2c-2.1-0.8-4.5,0.3-5.3,2.4c-0.8,2.1,0.3,4.5,2.4,5.3l16.8,6.2
			c0.5,0.2,1,0.3,1.4,0.3c1.7,0,3.2-1,3.9-2.7C225,131.9,224,129.5,221.8,128.7z"/>
	</g>
	<g>
		<g>
			<g>
				<path fill="#3BAEB5" d="M146.8,0c-17.4,0-31.5,12.4-31.5,27.8c0,7.8,3.6,14.8,9.5,19.8c-1.3,7.4-9.5,10.4-9,12.4
					c7,2.9,20.9-3.5,24.3-5.1c2.1,0.4,4.3,0.6,6.6,0.6c17.4,0,32.3-13,32.3-28.3S164.2,0,146.8,0z M144.6,28.9
					c0,7.6-3.3,11.8-9.9,12.6c0,0,0,0,0,0c-0.1,0-0.1,0-0.2-0.1c-0.1-0.1-0.1-0.1-0.1-0.2v-3.8c0-0.1,0.1-0.2,0.2-0.3
					c3-1.6,4.5-4.2,4.6-7.9h-4.4c-0.2,0-0.3-0.1-0.3-0.3v-9.7c0-0.2,0.1-0.3,0.3-0.3h9.7c0.2,0,0.3,0.1,0.3,0.3V28.9L144.6,28.9z
					 M161.7,28.9c0,7.4-3,11.2-9.9,12.6c0,0,0,0-0.1,0c-0.1,0-0.1,0-0.2-0.1c-0.1-0.1-0.1-0.1-0.1-0.2v-3.8c0-0.1,0.1-0.2,0.2-0.3
					c3-1.6,4.5-4.2,4.6-7.9h-4.4c-0.2,0-0.3-0.1-0.3-0.3v-9.7c0-0.2,0.1-0.3,0.3-0.3h9.7c0.2,0,0.3,0.1,0.3,0.3V28.9z"/>
			</g>
		</g>
	</g>
</g>
</svg>
