<?xml version="1.0" encoding="utf-8"?>
<!-- Generator: Adobe Illustrator 19.1.0, SVG Export Plug-In . SVG Version: 6.00 Build 0)  -->
<svg version="1.1" id="Capa_1" xmlns="http://www.w3.org/2000/svg" xmlns:xlink="http://www.w3.org/1999/xlink" x="0px" y="0px"
	 width="588.5px" height="314.3px" viewBox="0 0 588.5 314.3" enable-background="new 0 0 588.5 314.3" xml:space="preserve">
<g>
	<g>
		<g>
			<g>
				<path d="M128.3,98.2c1.8-5.7,3.5-11,5.1-16.2c1.9-6,3.8-12,5.8-18c0.2-0.5,0.8-1.1,1.2-1.1c10-0.1,20,0,30.1,0c0,3,0,5.9,0,9
					c-2.5,0-5,0-7.5,0c0,14.7,0,29.2,0,43.8c2.5,0,4.9,0,7.5,0c0,3,0,6,0,9c-10.8,0-21.7,0-32.7,0c0-2.9,0-5.8,0-8.9
					c2.4,0,4.7,0,7.2,0c0-13.9,0-27.7,0-41.4c-0.1-0.1-0.2-0.1-0.3-0.2c-0.3,0.5-0.6,0.9-0.8,1.4c-5.3,15.2-10.5,30.4-15.8,45.6
					c-1.3,3.7-1.2,3.7-5.1,3.7c-3.2,0-3.2,0-4.3-3c-5.6-15.4-11.2-30.8-16.8-46.1c-0.2-0.5-0.5-1-0.8-1.5c-0.1,0.1-0.3,0.1-0.4,0.2
					c0,13.7,0,27.4,0,41.3c2.2,0,4.5,0,6.9,0c0,3.1,0,6,0,9c-7.8,0-15.5,0-23.4,0c0-2.9,0-5.8,0-8.9c2.4,0,4.7,0,7.2,0
					c0-14.7,0-29.2,0-43.8c-2.3,0-4.7,0-7.2,0c0-3,0-6,0-9c0.4,0,0.9-0.1,1.3-0.1c9.6,0,19.1,0,28.7,0c1.1,0,1.5,0.3,1.9,1.4
					c3.8,10.9,7.7,21.7,11.5,32.6C127.8,97.1,127.9,97.4,128.3,98.2z"/>
				<path d="M308.9,115.6c2.7,0,5.2,0,7.9,0c0,3,0,6,0,9c-11.1,0-22.2,0-33.3,0c0-2.9,0-5.8,0-8.9c2.4,0,4.9,0,7.5,0
					c0-14.7,0-29.2,0-43.8c-2.5,0-5,0-7.6,0c0-3.1,0-6,0-9.1c0.6,0,1.2,0,1.8,0c11.7,0,23.4-0.1,35.1,0c5.2,0.1,10.3,0.7,15.1,2.9
					c5,2.3,8.5,5.8,9.1,11.5c0.5,4.8-1.1,9.8-7,12.9c-3.8,2-7.9,2.9-12.1,3.3c-0.6,0.1-1.1,0.3-1.7,0.7c2.3,0.4,4.7,0.7,6.9,1.3
					c5,1.3,8.7,4,9.8,9.4c0.4,1.8,0.3,3.7,0.5,5.6c0.1,1.3,0.2,2.6,0.6,3.8c0.7,2,2.8,2.3,4,0.6c0.8-1.2,1.3-2.7,1.8-4.1
					c0.3-0.9,0.4-1.2,1.4-0.8c0.8,0.3,1.7,0.5,2.6,0.7c2.5,0.7,2.5,0.7,1.8,3.1c-1.1,3.9-2.6,7.5-6.1,9.9c-3.4,2.3-7.2,3-11.3,2.3
					c-2-0.4-4-0.7-5.8-1.5c-3.8-1.7-5.7-5-6.3-8.9c-0.5-3.2-0.5-6.5-0.7-9.7c-0.1-1.1-0.2-2.2-0.4-3.3c-0.7-2.6-2.6-4.2-5.3-4.3
					c-2.7-0.1-5.5,0-8.3,0C308.9,103.8,308.9,109.6,308.9,115.6z M308.9,89.7c3.8-0.2,7.4-0.1,11-0.6c2.8-0.3,5-2,5.5-4.8
					c0.4-2.4,0.3-5,0.2-7.4c-0.2-3.1-2.4-4.6-5.2-5.3c-0.7-0.2-1.4-0.2-2.1-0.2c-3.1,0-6.3,0-9.4,0
					C308.9,77.4,308.9,83.4,308.9,89.7z"/>
				<path d="M241.2,71.5c0,6,0,11.7,0,17.7c2,0,4,0.1,6,0c2-0.1,3-1.3,3.5-3.6c0.3-1.5,0.5-3,0.8-4.7c2.7,0,5.4,0,8.2,0
					c0,8.3,0,16.6,0,25c-2.7,0-5.4,0-8.1,0c-0.4-1.8-0.7-3.6-1.2-5.3c-0.6-1.9-1.7-2.6-3.7-2.7c-1.8,0-3.6,0-5.5,0c0,6,0,11.9,0,18
					c2.1,0,4.1,0,6.1,0c3.6-0.1,7.2,0,10.8-0.3c5.1-0.3,7.2-3.8,8.1-8.2c0.6-2.7,1-5.4,1.5-8.2c3.1,0,6.2,0,9.4,0
					c0,8.4,0,16.8,0,25.3c-20.4,0-40.9,0-61.4,0c0-2.9,0-5.8,0-8.9c2.5,0,4.9,0,7.5,0c0-14.6,0-29.2,0-43.8c-2.5,0-4.9,0-7.5,0
					c0-3,0-6,0-9c20.1,0,40.2,0,60.4,0c0,7.5,0,15.1,0,22.7c-3.1,0-6.2,0-9.4,0c-0.6-2.5-1.1-5.1-1.8-7.6c-1.3-4.6-3.3-6.4-8.7-6.5
					C251.3,71.5,246.3,71.5,241.2,71.5z"/>
				<path d="M353.7,124.7c0-3,0-5.9,0-9c2.5,0,5,0,7.6,0c0-14.7,0-29.1,0-43.8c-2.4,0-4.9,0-7.5,0c0-3.1,0-6,0-9.1
					c0.5,0,1.1-0.1,1.6-0.1c9.7,0,19.3-0.2,29,0.1c7.8,0.2,15.5,1.4,22.3,5.5c6.9,4.1,11.1,10.2,12.5,18.1c1.3,7,1,13.8-1.7,20.4
					c-3.5,8.3-10,13-18.4,15.6c-5.4,1.7-11.1,2.2-16.7,2.3c-8.9,0-17.8,0-26.8,0C354.9,124.7,354.4,124.7,353.7,124.7z M379.2,116.1
					c3.3-0.2,6.5-0.1,9.6-0.5c4.7-0.7,8.4-3,9.9-7.7c1-2.9,1.8-6.1,1.9-9.1c0.2-4.8,0-9.6-0.6-14.4c-0.8-5.8-3.6-10.5-9.7-12
					c-3.5-0.8-7.2-0.8-11-1.2C379.2,86.4,379.2,101,379.2,116.1z"/>
				<path d="M491.6,115.6c0,3.1,0,6,0,9c-11.2,0-22.4,0-33.7,0c0-2.9,0-5.8,0-8.9c2.4,0,4.9,0,7.7,0c-0.8-2.3-1.4-4.4-2.1-6.5
					c-1.2-3.5-1.2-3.5-4.8-3.5c-5.2,0-10.4,0-15.6,0c-1,0-1.5,0.3-1.8,1.3c-0.8,2.8-1.9,5.6-2.9,8.6c2.7,0,5.2,0,7.8,0
					c0,3,0,5.9,0,8.9c-8.1,0-16.2,0-24.4,0c0-2.9,0-5.8,0-8.9c1.6,0,3.3-0.1,4.9,0c1.3,0.1,1.9-0.4,2.4-1.6
					c3.5-10,7.1-19.9,10.7-29.8c2.5-6.8,5-13.7,7.4-20.5c0.3-1,0.8-1.3,1.8-1.3c5,0.1,10.1,0.1,15.1,0c1.1,0,1.5,0.4,1.9,1.4
					c6.1,16.7,12.2,33.3,18.2,50c0.5,1.4,1.1,2.1,2.7,1.9C488.4,115.5,489.9,115.6,491.6,115.6z M459.5,97.5
					c-2.5-7.5-4.9-14.8-7.3-22.1c-0.2,0-0.3,0-0.5,0c-2.4,7.4-4.9,14.7-7.3,22.1C449.5,97.5,454.4,97.5,459.5,97.5z"/>
				<path d="M189.3,161.9c1.1,0.8,2.3,1.4,3.2,2.2c3.5,3.1,4.7,7,4.2,11.6c-0.7,7.1-5.8,10.6-12,11.8c-4.2,0.8-8.4,0.9-12.6,0.5
					c-1.2-0.1-2.5,0.2-3.7,0.6c-1.1,0.4-2.1,1.3-1.7,2.5c0.3,0.8,1.1,1.8,1.9,2c1.8,0.5,3.7,0.7,5.5,0.7c4.9,0.1,9.8-0.1,14.7,0.1
					c3.2,0.1,6.2,0.7,9,2.3c3.4,1.9,5.1,4.8,5.3,8.7c0.5,8-4.2,12.6-11.4,14.7c-3.8,1.1-7.8,1.7-11.7,2c-4.1,0.3-8.3,0.3-12.5,0
					c-4.2-0.3-8.4-0.9-11.9-3.5c-3.9-2.9-3.8-8.9,0.4-11.4c1.9-1.1,4.1-1.7,6.2-2.4c0.5-0.2,1-0.2,1.5-0.7c-0.6-0.2-1.2-0.4-1.8-0.6
					c-3-1-5.3-2.7-6.2-5.8c-1-3.3,0.4-6.8,3.6-8.8c1.9-1.2,4.2-1.7,6.3-2.6c0.4-0.2,0.9-0.2,1.3-0.4c-1.7-0.7-3.4-1.3-5-2.2
					c-6.8-4-7-13.8-1.3-18.9c3.3-3,7.3-4.1,11.7-4.7c4.1-0.5,8.1-0.2,12.2,0.7c0.7-1.4,1.3-2.8,2.1-4.2c3.1-5.3,9.2-7.6,15-5.8
					c3.5,1.1,5.2,3.9,4.8,8c-0.3,2.6-2.7,4.7-5.9,4.9c-3.2,0.2-6.2-1.5-6.4-5.6c0-0.4,0-0.7,0-1.1
					C191.7,157.3,190.5,158.7,189.3,161.9z M176,206.1c0,0.1,0,0.1,0,0.2c-2.5,0-5.1-0.2-7.6,0.1c-1.6,0.2-3.3,0.7-4.6,1.5
					c-1.9,1.2-1.9,3.6-0.1,5c0.6,0.5,1.4,0.9,2.1,1.1c5.4,1.6,10.9,1.5,16.4,0.8c1.6-0.2,3.2-0.8,4.7-1.5c1.9-0.9,2.7-2.5,2.3-4.2
					c-0.4-1.8-1.9-2.3-3.4-2.4C182.5,206.4,179.2,206.3,176,206.1z M171.2,174.2c0.4,1.9,0.6,4.1,1.2,6.1c0.7,2.3,2.3,3.1,4.9,3
					c2,0,3.2-0.9,3.9-3.2c1.3-4,1.2-8.1-0.1-12.1c-0.7-2.1-2.5-3.3-4.5-3.3c-2.2,0-3.8,1.2-4.5,3.6
					C171.7,170.2,171.5,172.1,171.2,174.2z"/>
				<path d="M145.4,196.8c2.1,0,4,0,6,0c0,2.9,0,5.6,0,8.4c-8.7,0-17.4,0-26.2,0c0-2.7,0-5.5,0-8.4c1.4,0,2.8,0,4.2,0
					c0.1-0.5,0.1-1,0.1-1.4c0-6.6,0.1-13.1,0-19.7c-0.1-5-3.3-7-7-6.2c-3.4,0.7-5.1,3.3-5.8,6.6c-0.3,1.6-0.3,3.3-0.4,4.9
					c0,5.1,0,10.3,0,15.6c1.4,0,2.8,0,4.2,0c0,2.9,0,5.6,0,8.4c-8.7,0-17.3,0-26,0c0-2.7,0-5.4,0-8.3c1.9,0,3.9,0,5.9,0
					c0-9.3,0-18.3,0-27.6c-2,0-3.9,0-5.9,0c0-2.9,0-5.6,0-8.4c6.8,0,13.6,0,20.6,0c0,3.7,0,7.3,0,10.9c0.1,0,0.2,0.1,0.4,0.1
					c0.3-0.7,0.6-1.4,0.9-2c2.2-4.8,5.4-8.5,10.8-9.8c6.3-1.5,13.7,0.3,16.2,6.2c1.1,2.5,1.8,5.3,1.9,8c0.3,6.8,0.1,13.6,0.1,20.5
					C145.4,195.3,145.4,196,145.4,196.8z"/>
				<path d="M383.5,196.9c0-9.3,0-18.3,0-27.6c-2,0-3.9,0-6,0c0-2.9,0-5.6,0-8.4c6.9,0,13.6,0,20.6,0c0,3.7,0,7.3,0,10.9
					c0.1,0,0.2,0.1,0.3,0.1c0.3-0.7,0.6-1.3,0.9-2c2.1-5,5.5-8.7,10.9-9.9c6.3-1.4,13.6,0.3,16.2,6.4c1,2.5,1.7,5.3,1.8,8
					c0.3,6.8,0.1,13.6,0.1,20.5c0,0.6,0,1.2,0,2c2,0,4,0,6,0c0,2.9,0,5.6,0,8.4c-8.8,0-17.5,0-26.3,0c0-2.8,0-5.5,0-8.3
					c1.4,0,2.8,0,4.3,0c0.1-0.5,0.1-0.9,0.1-1.4c0-6.6,0-13.1,0-19.7c0-3.2-1.6-5.5-4.3-6.2c-2.7-0.7-5,0.2-6.5,2.4
					c-1.1,1.7-2.2,3.8-2.3,5.8c-0.3,6.2-0.1,12.5-0.1,18.9c1.4,0,2.7,0,4.1,0c0,2.9,0,5.6,0,8.4c-8.6,0-17.3,0-26,0
					c0-2.7,0-5.4,0-8.3C379.5,196.9,381.5,196.9,383.5,196.9z"/>
				<path d="M371.3,193.2c1.6,0.4,3.2,0.8,4.8,1.2c-0.8,7.1-4.5,11.2-11.1,11.9c-6.4,0.7-10.1-2.2-12.8-10.2
					c-0.4,0.5-0.7,0.9-0.9,1.4c-3,6.8-9.2,9.6-16.7,8.6c-3.6-0.5-6.8-1.8-9.2-4.6c-3.9-4.8-3-12.9,3-16.5c3.7-2.2,7.8-3.1,11.9-3.8
					c2.9-0.5,5.9-0.9,8.8-1.3c1-0.1,1.5-0.6,1.4-1.7c-0.2-2.1,0-4.3-0.4-6.4c-0.5-2.7-2.7-4.3-5.4-4.5c-3.5-0.3-5-0.1-6.5,0.6
					c0.5,1.7,1.1,3.2,1.3,4.9c0.5,3.3-2.3,5.6-5.3,6.1c-1.4,0.2-2.9,0.2-4.3-0.1c-5.2-1.2-6.6-7.5-3.6-11.9c2.2-3.2,5.6-4.7,9.2-5.7
					c6.8-1.8,13.7-2.3,20.5-0.3c6.4,1.9,9.8,6.7,9.9,13.3c0.2,6.7,0,13.4,0,20.2c0,0.5-0.1,1.1,0.1,1.4c0.4,0.8,0.9,1.8,1.6,2.1
					c1.1,0.5,1.9-0.5,2.3-1.5C370.6,195.4,370.9,194.4,371.3,193.2z M351,184.2c-1.4,0.2-2.2,0.3-3,0.5c-2.4,0.5-4.8,0.8-6.8,2.4
					c-2.1,1.7-2.4,4.1-1.9,6.6c0.4,2.2,2.1,3.5,4.3,3.8c2.9,0.4,5.5-0.9,6.5-4.6C350.7,190.2,350.7,187.3,351,184.2z"/>
				<path d="M203.6,183.1c-0.4-12,8.5-21.1,19.3-23c8.2-1.4,15.7-0.1,22.3,5.2c4.5,3.7,6.8,8.6,7.5,14.3c0.8,6.1-0.5,11.7-4,16.7
					c-4.3,5.9-10.2,8.9-17.5,9.8c-5.3,0.6-10.4-0.2-15.2-2.4C208.7,200.2,203.3,192.7,203.6,183.1z M220.5,182.8c0.1,0,0.2,0,0.4,0
					c0,1.4-0.2,2.9,0,4.3c0.4,2.8,0.9,5.7,1.7,8.4c0.9,2.6,3.2,3.8,5.9,3.8c2.6,0,4.7-1.2,5.5-3.7c0.8-2.5,1.4-5,1.6-7.6
					c0.3-3.2,0.2-6.5,0-9.7c-0.2-2.4-0.6-4.8-1.3-7.2c-0.9-3.6-3.5-4.9-6.5-4.9c-3.1,0-5.3,1.9-6,5.4
					C221.2,175.4,220.9,179.2,220.5,182.8z"/>
				<path d="M184.2,71.8c-2.5,0-4.9,0-7.5,0c0-3,0-5.9,0-9c10.9,0,21.9,0,33,0c0,2.9,0,5.8,0,8.9c-2.5,0-5,0-7.6,0
					c0,14.7,0,29.1,0,43.8c2.5,0,5,0,7.6,0c0,3.1,0,6,0,9c-11,0-22,0-33.1,0c0-2.9,0-5.9,0-8.9c2.5,0,4.9,0,7.5,0
					C184.2,101.1,184.2,86.5,184.2,71.8z"/>
				<path d="M89.5,185.3c-5.4,0-10.3,0-15.3,0c-4.9,0-9.9,0-14.8,0c-0.3,6.5,2.2,11.5,7.4,12.4c5.4,0.9,10.7,0.3,13.1-6.4
					c0.1-0.4,0.7-0.8,1.1-0.8c2.5-0.1,4.9,0,7.4,0c-0.4,5.9-4.1,11.6-10,13.9c-4.7,1.8-9.5,2.2-14.5,1.6c-4.7-0.6-9.1-1.9-12.9-4.8
					c-4.5-3.4-6.9-8-7.7-13.6c-0.9-6.7,0.1-13,4.1-18.5c4.1-5.6,9.6-8.5,16.5-9.3c3.8-0.5,7.5-0.1,11.1,0.9
					c7.8,2.3,12,7.8,13.5,15.5C89.1,179.1,89.2,182.1,89.5,185.3z M74.4,178.8c-0.7-3.1-1.1-6-2-8.7c-0.7-2.4-2.7-3.5-5.1-3.6
					c-2.4-0.1-4.5,0.7-5.7,2.8c-1.8,2.9-2.1,6.2-2.2,9.6C64.2,178.8,69,178.8,74.4,178.8z"/>
				<path d="M534.5,185.4c-10.4,0-20.2,0-30.1,0c-0.3,5.6,1.9,10.9,6.2,12c5.9,1.5,11.9,1.2,14.7-6.8c2.7,0,5.4,0,8.2,0
					c-1.2,6.9-4.5,11.9-11.2,14.2c-7.1,2.4-14.2,2.1-21.1-0.6c-7.4-2.9-11.7-8.5-12.9-16.4c-1-6.9,0.1-13.3,4.3-18.9
					c4-5.3,9.5-8.2,16.1-9c3.8-0.5,7.5-0.1,11.1,0.9c7.8,2.2,12.2,7.8,13.6,15.6C534.1,179.1,534.2,182.1,534.5,185.4z M519,178.8
					c-0.3-3.2-0.4-6.3-1.8-9.2c-1.9-4.1-8.4-4.3-10.7-0.3c-1.7,2.9-2.1,6.2-2.2,9.5C509.2,178.8,514,178.8,519,178.8z"/>
				<path d="M472.4,169.8c-3.9-4.2-11.8-3.7-14.8,2.4c-2.2,4.4-2.7,9-2,13.8c0.4,3.2,1.2,6.1,3.5,8.6c3.8,4.1,12.1,3.6,14.7-1.8
					c1.4-2.8,3.1-3.4,5.8-3.1c1.3,0.1,2.7,0,4.1,0c0,0.4,0.1,0.8,0,1.1c-2.1,7.9-6.8,13.4-15.2,14.8c-8.8,1.4-17.2,0.1-23.9-6.4
					c-3.6-3.5-5.2-7.9-5.7-12.9c-0.6-6.3,0.5-12.2,4.2-17.4c3.4-4.8,8.2-7.6,13.9-8.8c6.1-1.3,12.1-1.1,17.9,1.4
					c5.3,2.3,8.5,6.3,9.2,12.1c0.4,3-0.8,6.8-4,8.4c-3,1.5-7,1-9.3-1c-3-2.6-3.2-8.9,1.2-11C471.9,170.1,472.1,170,472.4,169.8z"/>
				<path d="M318.8,189.8c-1.1,7-5.6,13.8-14,15.7c-7.6,1.7-15,0.8-21.7-3.3c-5.7-3.5-8.4-8.8-9.2-15.3c-0.6-4.5,0-8.8,1.6-13
					c2.3-5.9,6.4-10,12.2-12.2c7.4-2.9,14.9-3,22.3,0.1c5.2,2.3,8.4,6.3,9.1,12c0.4,3.1-0.8,6.8-4,8.4c-3.1,1.5-7.2,1-9.6-1.2
					c-2.7-2.5-2.9-8.7,1.4-10.7c0.2-0.1,0.4-0.3,0.6-0.4c-2.8-3.8-10.3-3.9-13.7,0.8c-2.1,2.9-2.9,6.3-3.2,9.7
					c-0.3,3.6-0.1,7.3,1.4,10.7c1.8,4.2,5,6.5,8.9,6.4c4.2-0.2,7.4-2.1,9-6.1c0.5-1.2,1.2-1.6,2.5-1.6
					C314.4,189.9,316.6,189.8,318.8,189.8z"/>
				<path d="M33.2,187.9c2.1,0.5,4,1,6.1,1.5c-1.2,5.9-2.2,12-8.2,15.1c-5.6,2.9-11.5,2.6-17.1-0.2c-4.3-2.1-6.1-6.2-6.3-10.7
					c-0.3-7.4-0.3-14.8-0.4-22.2c0-0.6,0-1.3,0-2.1c-2.5,0-4.9,0-7.3,0c0-2.7,0-5.3,0-8.1c2.5,0,5.1,0,7.9,0c0-3.4,0-6.6,0-10
					c5.1-0.6,10.1-1.2,15.3-1.9c0,4,0,7.8,0,11.7c4.7,0,9.3,0,14.1,0c0,2.7,0,5.3,0,8.1c-4.6,0-9.2,0-13.9,0c0,0.6-0.1,1.1-0.1,1.6
					c0,6.6-0.1,13.2,0,19.8c0,1.3,0.4,2.8,1,4c1.4,2.8,5.1,2.9,6.6,0.2c0.9-1.7,1.4-3.7,2-5.5C32.9,188.8,33.1,188.4,33.2,187.9z"/>
				<path d="M560.3,171.8c0.9-1.8,1.7-3.6,2.7-5.3c2.4-4,5.8-6.6,10.5-7c5.1-0.5,10.2,3.1,10.4,8.9c0.2,4.8-2.8,8.1-5.7,8.9
					c-5.4,1.5-9.3-1.2-10.3-7c-3,0.9-6.5,4.8-6.5,7.8c-0.1,6.2,0,12.3,0,18.7c2.7,0,5.3,0,8,0c0,2.9,0,5.6,0,8.4
					c-9.9,0-19.8,0-29.9,0c0-2.7,0-5.4,0-8.3c1.9,0,3.9,0,5.9,0c0-9.3,0-18.4,0-27.6c-2,0-3.9,0-5.9,0c0-2.9,0-5.6,0-8.4
					c6.8,0,13.6,0,20.6,0c0,3.6,0,7.3,0,10.9C560.1,171.8,560.2,171.8,560.3,171.8z"/>
				<path d="M367.6,309.1c5.2,2.3,10.6,0.8,13.5-3.8c2.2-3.3,3.3-7.1,4.1-11c0-0.2,0-0.4,0-0.9c-1.3,1.1-2.4,2.1-3.5,3
					c-4.4,3.3-10.5,3.4-14.2,0.2c-3.2-2.7-4.1-6.5-3.8-10.4c0.3-4.9,1.6-9.5,4.5-13.6c2.8-4.1,6.3-7.4,11.2-8.9
					c5-1.4,9.6-0.2,11.9,5.3c0.4-1.5,0.9-2.7,1-3.9c0.2-1.2,0.7-1.4,1.7-1.3c1.9,0.1,3.7,0,5.9,0c-0.5,2.1-0.9,4-1.4,5.9
					c-2.2,9.3-4.4,18.7-6.8,28c-1.1,4.3-3,8.3-6.2,11.6c-4.4,4.5-9.8,5.6-15.8,4.8c-2.1-0.3-4.3-0.7-6.1-1.5
					c-4.1-1.9-4.8-7.2-1.7-10.2c1.5-1.5,3.8-1.7,5.4-0.7c1.5,1,2.2,2.9,1.5,4.9C368.5,307.4,368.1,308.2,367.6,309.1z M389.1,275.4
					c0-0.3,0-0.5,0-0.8c0.1-2.9-0.9-5.4-3.5-6.6c-2.5-1.2-4.9-0.2-7,1.4c-2.5,2-4,4.7-5.1,7.6c-1.5,3.9-2.5,7.9-1.7,12.2
					c0.4,2.4,2,4.2,4.2,4.4c2.1,0.2,4-0.3,5.7-1.7C386.7,287.7,388.7,281.9,389.1,275.4z"/>
				<path d="M281,251.2c0.5-2.1,1-3.9,1.5-5.8c4.8,0,9.6,0,14.7,0c-3.3,11.6-6.7,23.1-10,34.6c0.2,0.1,0.3,0.1,0.5,0.2
					c0.8-1.6,1.6-3.1,2.5-4.7c2.2-3.9,4.8-7.5,8.5-10.1c2-1.5,4.3-2.6,6.8-2.2c3.1,0.5,5,2.9,5.6,6c0.8,3.8-0.5,7.1-1.5,10.6
					c-1.2,4.2-2.6,8.3-3.8,12.4c-0.3,1.1-0.7,2.7,0.7,3.3c1.4,0.7,2.4-0.5,3.1-1.6c0.9-1.5,1.8-3.1,2.3-4.7c0.5-1.5,1.1-1.9,2.5-1.3
					c0.5,0.2,1,0.3,1.6,0.5c-1.3,4.1-2.8,8-6,10.9c-2.7,2.4-5.8,2.7-8.4,1.2c-2.5-1.5-3.3-5.2-3-8.1c0.6-5.1,2.6-9.8,4.1-14.7
					c0.5-1.6,1-3.3,1.1-4.9c0.1-1.1-0.2-2.6-1-3.1c-0.7-0.5-2.3-0.3-3.2,0.1c-3.2,1.5-5.2,4.3-7,7.2c-4.4,6.9-7,14.6-9.3,22.4
					c-0.1,0.5-0.3,1-0.5,1.5c-2.6,0-5,0-7.8,0c4.4-16.5,8.8-32.9,13.2-49.6C285.8,251.2,283.5,251.2,281,251.2z"/>
				<path d="M149.6,308.1c2.3,0,4.4,0,6.5,0c0.5,0,1.2-0.4,1.3-0.8c1.3-4.3,2.5-8.6,3.7-12.9c0.1-0.2,0-0.5,0-1.2
					c-0.7,0.9-1.1,1.5-1.5,2c-2.2,3-5,5-8.7,5.5c-3.7,0.4-7.8-1.4-9.8-6.5c-2.4-6.2-1.4-12.2,1.5-18c2.9-5.8,7.4-10,13.6-12.3
					c4.7-1.8,9.5-1.3,11.6,5c0.4-1.6,0.7-3,1.2-4.4c0.1-0.4,0.7-0.9,1-0.9c2.1-0.1,4.2,0,6.5,0c-4,14.9-7.9,29.6-11.9,44.5
					c2.1,0,3.9,0,6.1,0c-0.5,1.7-0.8,3.2-1.3,4.7c-0.1,0.2-0.6,0.5-0.9,0.5c-6.7,0-13.4,0-20.3,0
					C148.7,311.5,149.1,309.9,149.6,308.1z M160.6,267.6c-1.9,0-3.8,0.6-5.2,2.1c-5.8,6-8.3,13.2-7.4,21.4c0.3,3.1,2.6,4.7,5.4,4.1
					c1.3-0.3,2.6-1,3.7-1.8c4.1-3.5,6.1-8.2,7.6-13.3c0.9-3.1,1.5-6.2,0.3-9.4C164.2,268.5,162.9,267.6,160.6,267.6z"/>
				<path d="M218.9,263.6c-2.3,8.5-4.5,16.7-6.6,25c-0.4,1.5-0.7,3.1-0.8,4.7c0,0.7,0.5,1.9,1,2.1c0.8,0.2,2-0.1,2.6-0.6
					c0.9-0.9,1.6-2.1,2.2-3.3c0.7-1.2,1.1-2.5,1.8-4.1c1,0.3,2.2,0.6,3.4,0.9c-1.5,4.3-3,8.5-6.6,11.4c-2.9,2.3-6.9,2.3-9-0.2
					c-0.9-1.1-1.4-2.7-1.6-4.2c-0.4-3.2,0.4-6.4,1.3-9.4c0.1-0.3,0.1-0.6-0.1-1.1c-0.3,0.5-0.6,1-0.9,1.5c-2.1,4.2-4.4,8.3-8,11.6
					c-1.3,1.2-2.8,2.2-4.4,2.9c-5.4,2.2-9.2-1.5-9.6-6.5c-0.3-4.7,1.4-8.9,2.8-13.2c0.9-2.8,1.7-5.6,2.5-8.4c0.1-0.5,0.2-1,0.1-1.4
					c-0.2-0.8-0.5-1.5-0.7-2.3c-0.9,0.3-2.1,0.4-2.6,1.1c-1.3,1.6-2.2,3.4-3.2,5.2c-0.3,0.4-0.5,0.9-0.8,1.5
					c-1.2-0.5-2.3-1.1-3.4-1.6c1.6-3.8,3.5-7.4,6.7-10c1.9-1.6,4.1-2.5,6.7-1.9c3,0.7,4.5,2.8,4.7,5.8c0.3,5.1-1.5,9.7-3.1,14.4
					c-1,3-2.2,5.9-2.1,9.1c0.1,2.4,1.5,3.6,3.7,2.4c1.7-1,3.4-2.3,4.6-3.9c4-5,6.3-11,8.4-17c1.1-3.1,1.9-6.2,2.9-9.3
					c0.2-0.5,0.7-1.1,1.2-1.1C214.2,263.6,216.5,263.6,218.9,263.6z"/>
				<path d="M347.9,269.1c0.5-1.7,0.9-2.9,1.2-4.3c0.2-0.9,0.6-1.3,1.5-1.2c2,0.1,4,0,6.2,0c-0.9,3.3-1.8,6.4-2.6,9.5
					c-1.6,5.9-3.2,11.9-4.8,17.8c-0.2,0.9-0.3,1.8-0.2,2.7c0.1,0.6,0.5,1.6,1,1.8c0.6,0.2,1.7,0.1,2.2-0.4c1-0.9,1.6-2.1,2.4-3.2
					c0.4-0.5,0.6-1.1,0.8-1.7c1.3-3,1.3-3,4.6-1.7c-1.3,3.9-2.8,7.8-6,10.7c-1.8,1.6-4,2.6-6.4,2.1c-3.2-0.6-4.9-2.9-5-6.3
					c0-0.6,0-1.3-0.3-2.1c-0.3,0.4-0.6,0.8-0.9,1.3c-2.3,3.4-5.1,6.1-9.4,7c-4.8,1-9.2-2.1-10.7-6.1c-2.3-6.3-1.2-12.3,1.4-18.1
					c2.9-6.6,7.9-11.4,15-13.4c1.6-0.4,3.3-0.4,5-0.2c2.2,0.3,3.7,1.8,4.5,3.9C347.4,267.7,347.6,268.3,347.9,269.1z M340.8,267.2
					c-1.4,0.6-2.9,1-4.1,1.8c-1.2,0.8-2.3,1.9-3.2,3.1c-3.8,5.6-6.2,11.6-5.3,18.5c0.3,2,1.1,3.9,3.2,4.6c2.1,0.8,4,0.3,5.6-1.1
					c1-0.9,1.9-1.8,2.7-2.9c3.1-4.1,4.7-8.9,5.7-13.9c0.5-2.2,0.6-4.5-0.3-6.8C344.5,268.6,343.1,267.6,340.8,267.2z"/>
				<path d="M403.2,285.8c0.4-9.3,5.5-18,13.9-21.3c6.2-2.5,13.5-1.4,17.4,3.7c2.8,3.7,3.6,7.9,3.2,12.5c-0.5,5.3-2.5,9.9-6,13.9
					c-3.8,4.3-8.7,6.9-14.5,6.8c-7.6-0.2-12.6-5-13.6-12.5C403.5,287.8,403.3,286.8,403.2,285.8z M430.1,275.3
					c-0.1-1-0.2-2.2-0.5-3.4c-0.6-2.9-2.9-4.6-5.9-4.7c-3.4-0.1-5.6,1.9-7.4,4.4c-2.6,3.5-3.9,7.6-4.7,11.8c-0.6,3.4-1.2,6.8,0,10.1
					c0.7,2,2.1,3.3,4.2,3.7c3.6,0.8,6.2-0.9,8.2-3.5C428.3,288.4,429.6,282.1,430.1,275.3z"/>
				<path d="M116,270c-1-0.7-1.8-1.3-2.6-1.9c2.5-5.3,9-8.3,14.4-6.6c3.2,1,5.2,3.2,5.6,6.5c0.4,3.3-0.7,6.4-3.6,8.3
					c-2.8,1.8-5.9,3.2-8.9,4.8c-2.6,1.4-5.3,2.6-7.7,4.2c-2.5,1.7-3.4,5.1-2.5,7.8c0.9,2.6,3.2,4.1,6.5,4.4c2.8,0.2,5.5-0.1,7.9-1.8
					c-1-1.9-1.8-3.8-1.1-6c0.9-3,3.7-4.8,6.7-4.1c2.4,0.6,3.8,3.4,3.2,6.3c-0.6,3.1-2.3,5.3-4.8,6.9c-6.6,4.1-13.5,4.5-20.4,1
					c-7.8-4.1-8.9-15.7,0-20.4c3.8-2,7.9-3.4,11.9-5.2c1-0.4,2.1-0.9,3-1.5c0.9-0.5,1.7-1.2,2.3-2c1-1.2,1.2-2.7,0.4-4
					c-0.8-1.4-2.3-1.6-3.8-1.4c-2,0.3-3.4,1.4-4.8,2.8C117.2,268.8,116.7,269.3,116,270z"/>
				<path d="M463.3,277.5c0.9,0.6,1.8,1.2,2.8,1.9c-2.3,3.9-5.4,6.4-9.9,6.8c-1.4,0.1-2.8,0-4.1-0.3c-6.2-1.2-7.9-8.5-4.1-13.2
					c2.1-2.6,5.1-4,8.1-5.3c2.4-1.1,4.8-2,7.1-3.2c1.4-0.7,2.7-1.7,3.9-2.8c2.1-2.1,2.4-4.7,1.4-7.4c-1-2.7-3.3-3.7-6.1-3.9
					c-2.9-0.2-5.6,0-8.1,1.8c0.3,0.6,0.5,1.1,0.8,1.6c1.1,2.5,0.6,5.4-1.3,7.2c-1.6,1.5-4,1.8-5.9,0.7c-1.8-1-2.8-3.5-2.4-5.5
					c0.7-3.3,2.5-5.8,5.4-7.4c6.7-3.8,13.7-4.2,20.5-0.3c7.3,4.2,7.7,14.7,0.6,19.1c-3.7,2.3-7.9,3.6-11.9,5.4
					c-1.9,0.9-3.8,1.9-5.6,3c-0.7,0.5-1.4,1.5-1.6,2.3c-0.7,3.6,1.8,4.6,4.9,3.7c1.6-0.5,3-1.9,4.4-3
					C462.5,278.5,462.8,277.9,463.3,277.5z"/>
				<path d="M255.5,290.8c-3.1,5-7,8.8-12.8,10.1c-9.5,2.1-16.8-3.4-17.1-13.3c-0.3-10.8,8.2-21.5,18-23.7c2.4-0.5,5-0.8,7.4-0.4
					c7.4,1.3,8.5,8.5,4.6,13.5c-3,3.9-7.3,5.8-11.9,7c-3.1,0.8-6.3,1.1-9.4,1.7c-0.4,0.1-0.9,0.5-0.9,0.8c-0.1,1.5-0.2,3,0.1,4.5
					c1.1,6.2,6.9,7,11.1,5.1c2.8-1.2,4.9-3.2,6.6-5.7c0.8-1.1,1.4-1.6,2.6-0.6C254.4,290.2,254.9,290.4,255.5,290.8z M234.3,282.1
					c5.3-0.7,10.2-1.6,14.2-5.2c1-0.9,1.8-2.3,2.2-3.6c1.3-4-0.9-6.7-4.8-6.1c-1.3,0.2-2.6,0.8-3.6,1.6
					C237.9,272.2,235.9,276.9,234.3,282.1z"/>
				<path d="M66.8,78.9c1.5,0,2.9,0,4.3,0c0.2,2,0.3,4,0.5,5.9c0.5,5.5,1.1,10.9,1.6,16.4c0.5,5,0.9,10.1,1.3,15.1
					c0.1,1.7,0.1,3.4,0,5.1c-0.2,2.9-2.4,4.8-5.3,4.9c-2.8,0.1-5.3-1.6-5.6-4.4c-0.3-3.3-0.1-6.6,0.1-9.9c0.2-3.4,0.7-6.9,1.1-10.3
					c0.4-3.8,0.9-7.6,1.2-11.4C66.3,86.6,66.5,82.8,66.8,78.9z"/>
				<path d="M508.4,107.9c-1.6,0-3,0-4.4,0c-0.2-1.6-0.3-3.2-0.5-4.7c-0.5-5.7-1.1-11.3-1.6-17c-0.5-4.8-1-9.6-1.3-14.5
					c-0.2-2.3-0.2-4.6,0.1-6.8c0.4-2.8,2.8-4.5,5.8-4.3c2.7,0.1,5,2,5.1,4.8c0.1,3,0,5.9-0.2,8.9c-0.2,3.4-0.7,6.8-1,10.2
					c-0.4,3.8-0.9,7.5-1.2,11.3c-0.3,3.4-0.5,6.8-0.7,10.2C508.4,106.5,508.4,107.1,508.4,107.9z"/>
				<path d="M342.3,154.5c2.6-5.9,4.8-11.8,7.7-17.3c2.4-4.4,7.9-4.7,11.3-1.2c1.9,2,2.3,5.6,0.3,8c-1.9,2.4-4.4,4.3-6.7,6.4
					c-0.6,0.5-1.3,0.8-1.8,1.4C350.3,154.9,346.7,155.2,342.3,154.5z"/>
				<path d="M9.7,230.8c186.4,0,372.8,0,559.2,0c0,0.1,0,0.2,0,0.3c-186.4,0-372.8,0-559.2,0C9.7,231,9.7,230.9,9.7,230.8z"/>
				<path d="M62.8,66.4c0-3.2,2.7-5.9,6.1-5.8c3.4,0,6.3,2.8,6.2,6.1c-0.1,3.1-3,5.9-6.2,5.9C65.5,72.5,62.8,69.7,62.8,66.4z"/>
				<path d="M506.1,114.4c3.4,0,6.3,2.8,6.3,6c-0.1,3.2-2.9,6-6.1,6c-3.7-0.1-6.2-2.9-6.2-6C500,117,502.7,114.4,506.1,114.4z"/>
				<path d="M244.6,257.9c2.2-3.6,4.2-6.9,6.2-10.1c1.1-1.7,2.1-3.4,3.4-4.8c1.6-1.7,4.2-1.5,5.4,0.3c0.8,1.1,0.8,3.2-0.2,4.3
					c-1.5,1.7-3.1,3.2-4.8,4.7c-1.7,1.6-3.6,3.1-5.3,4.7C248.1,258.4,246.5,257.6,244.6,257.9z"/>
				<path d="M577,213.4c6.2-3.8,7.5-5.2,7.6-7.6c-1,0-2,0.2-2.9,0c-2-0.6-2.9-2.5-2.3-4.5c0.7-2.3,2.7-3.8,4.8-3.3
					c3.2,0.7,4.8,3.7,4.1,7.4c-0.7,3.5-2.8,5.9-5.7,7.8c-1.3,0.9-2.8,1.5-4.4,2.4C577.8,214.7,577.4,214.1,577,213.4z"/>
				<path d="M445.5,297c0-3.2,2.2-5.6,5.1-5.6c3.1,0,4.7,1.7,4.6,5c0,3.1-2.4,5.7-5.1,5.7C447.3,302,445.5,300,445.5,297z"/>
				<path d="M124,251.4c0-3.1,2.3-5.7,5-5.8c2.8-0.1,4.7,2,4.7,5.1c0,3.2-2.2,5.6-5.1,5.6C125.7,256.3,124,254.5,124,251.4z"/>
				<path d="M289.7,9.7"/>
			</g>
		</g>
	</g>
	<g>
		<path d="M105.8,10.4c-0.2,0.2-0.5,0.4-0.8,0.5c-0.3,0.2-0.7,0.3-1.1,0.4c0.1,0.1,0.2,0.2,0.3,0.4c0.1,0.2,0.3,0.4,0.4,0.6l2.5,4.2
			l1.8,0.4V18h-4.7v-1.2l-2.6-5.1h-1.9v4.7l1.9,0.4V18h-6.2v-1.2l1.7-0.4V5.2l-1.7-0.4V3.6h7.5c0.6,0,1.2,0.1,1.7,0.2
			c0.5,0.1,0.9,0.3,1.3,0.6c0.5,0.3,0.9,0.8,1.1,1.3c0.3,0.5,0.4,1.1,0.4,1.7s-0.1,1.1-0.4,1.6C106.6,9.5,106.3,10,105.8,10.4z
			 M101.8,10.2c0.7,0,1.3-0.2,1.8-0.6c0.3-0.2,0.5-0.5,0.6-0.9c0.2-0.4,0.2-0.8,0.2-1.2c0-0.4-0.1-0.8-0.2-1.1
			c-0.2-0.3-0.4-0.6-0.6-0.8c-0.4-0.3-1.1-0.5-1.9-0.5h-2.2v5.2H101.8z"/>
		<path d="M125.3,10.6c0,1.1-0.2,2.2-0.5,3.2c-0.3,1-0.8,1.9-1.5,2.6c-0.6,0.6-1.3,1-2.1,1.3c-0.8,0.3-1.8,0.4-2.9,0.4
			c-1.1,0-2.1-0.1-2.9-0.4c-0.8-0.3-1.5-0.7-2-1.3c-0.6-0.6-1.1-1.4-1.4-2.4c-0.3-1-0.5-2-0.5-3.2c0-1.2,0.2-2.3,0.5-3.3
			s0.8-1.9,1.5-2.5c0.6-0.6,1.2-1,2-1.3c0.8-0.3,1.7-0.4,2.9-0.4c1.1,0,2,0.1,2.8,0.4c0.8,0.3,1.5,0.7,2.1,1.3
			c0.7,0.7,1.2,1.5,1.5,2.5C125.1,8.6,125.3,9.6,125.3,10.6z M114.4,10.6c0,1,0.1,2,0.3,2.8c0.2,0.8,0.5,1.5,0.8,2
			c0.3,0.5,0.7,0.9,1.2,1.1c0.5,0.3,1.1,0.4,1.8,0.4c1.3,0,2.2-0.4,2.8-1.3c0.3-0.5,0.6-1.1,0.8-1.8c0.2-0.8,0.3-1.7,0.3-2.7
			c0-1.1-0.1-2-0.3-2.7c-0.2-0.8-0.5-1.4-0.8-1.9c-0.3-0.5-0.8-0.9-1.3-1.1c-0.5-0.2-1.1-0.4-1.7-0.4c-0.6,0-1.2,0.1-1.6,0.4
			c-0.5,0.2-0.8,0.6-1.1,1C114.8,7.1,114.4,8.6,114.4,10.6z"/>
		<path d="M140.4,7.1c0,0.4-0.1,0.8-0.2,1.1s-0.3,0.7-0.6,0.9c-0.2,0.3-0.5,0.5-0.9,0.7c-0.3,0.2-0.7,0.3-1.1,0.4v0.1
			c1,0.2,1.9,0.7,2.5,1.3c0.6,0.7,0.9,1.5,0.9,2.5c0,0.8-0.2,1.5-0.6,2.1c-0.4,0.6-0.9,1.1-1.5,1.4c-0.2,0.1-0.4,0.2-0.6,0.2
			c-0.2,0.1-0.5,0.1-0.8,0.2c-0.3,0-0.6,0.1-1,0.1c-0.4,0-0.8,0-1.3,0h-6.6v-1.2l1.7-0.4V5.2l-1.7-0.4V3.6h7.3c1.4,0,2.5,0.3,3.2,1
			c0.3,0.3,0.6,0.7,0.8,1.1S140.4,6.6,140.4,7.1z M133.1,9.8h1.9c0.9,0,1.6-0.2,2.1-0.7c0.2-0.2,0.4-0.4,0.5-0.7
			c0.1-0.3,0.2-0.6,0.2-1c0-0.4-0.1-0.7-0.2-1c-0.1-0.3-0.3-0.5-0.5-0.7c-0.4-0.4-1.1-0.6-2-0.6h-2V9.8z M133.1,11.2v5.3h1.6
			c0.6,0,1.1,0,1.5-0.1c0.4-0.1,0.7-0.2,0.9-0.3c0.4-0.2,0.7-0.5,0.9-0.9c0.2-0.4,0.3-0.9,0.3-1.4c0-0.5-0.1-0.9-0.3-1.2
			c-0.2-0.3-0.4-0.6-0.7-0.8c-0.2-0.2-0.5-0.3-0.9-0.4c-0.4-0.1-0.9-0.1-1.4-0.1H133.1z"/>
		<path d="M152.1,13.2l-0.3-1.9H149v5.1h5.5l0.6-3h1.8V18h-12.3v-1.2l1.9-0.4V5.2l-1.9-0.4V3.6h11.9v4.2h-1.6l-0.6-2.8H149v4.8h2.7
			l0.3-1.9h1.6v5.3H152.1z"/>
		<path d="M171.1,10.4c-0.2,0.2-0.5,0.4-0.8,0.5c-0.3,0.2-0.7,0.3-1.1,0.4c0.1,0.1,0.2,0.2,0.3,0.4c0.1,0.2,0.3,0.4,0.4,0.6l2.5,4.2
			l1.8,0.4V18h-4.7v-1.2l-2.6-5.1h-1.9v4.7l1.9,0.4V18h-6.2v-1.2l1.7-0.4V5.2l-1.7-0.4V3.6h7.5c0.6,0,1.2,0.1,1.7,0.2
			c0.5,0.1,0.9,0.3,1.3,0.6c0.5,0.3,0.9,0.8,1.1,1.3c0.3,0.5,0.4,1.1,0.4,1.7s-0.1,1.1-0.4,1.6C171.9,9.5,171.5,10,171.1,10.4z
			 M167.1,10.2c0.7,0,1.3-0.2,1.8-0.6c0.3-0.2,0.5-0.5,0.6-0.9c0.2-0.4,0.2-0.8,0.2-1.2c0-0.4-0.1-0.8-0.2-1.1
			c-0.2-0.3-0.4-0.6-0.6-0.8c-0.4-0.3-1.1-0.5-1.9-0.5h-2.2v5.2H167.1z"/>
		<path d="M189,3.6v4.5h-1.3l-0.6-3h-3v11.3l2.1,0.5V18h-6.8v-1.2l2.1-0.5V5.1h-3.1l-0.6,3h-1.3V3.6H189z"/>
		<path d="M206.1,10.6c0,1.1-0.2,2.2-0.5,3.2c-0.3,1-0.8,1.9-1.5,2.6c-0.6,0.6-1.3,1-2.1,1.3c-0.8,0.3-1.8,0.4-2.9,0.4
			c-1.1,0-2.1-0.1-2.9-0.4c-0.8-0.3-1.5-0.7-2-1.3c-0.6-0.6-1.1-1.4-1.4-2.4c-0.3-1-0.5-2-0.5-3.2c0-1.2,0.2-2.3,0.5-3.3
			s0.8-1.9,1.5-2.5c0.6-0.6,1.2-1,2-1.3c0.8-0.3,1.7-0.4,2.9-0.4c1.1,0,2,0.1,2.8,0.4c0.8,0.3,1.5,0.7,2.1,1.3
			c0.7,0.7,1.2,1.5,1.5,2.5C205.9,8.6,206.1,9.6,206.1,10.6z M195.2,10.6c0,1,0.1,2,0.3,2.8c0.2,0.8,0.5,1.5,0.8,2
			c0.3,0.5,0.7,0.9,1.2,1.1c0.5,0.3,1.1,0.4,1.8,0.4c1.3,0,2.2-0.4,2.8-1.3c0.3-0.5,0.6-1.1,0.8-1.8c0.2-0.8,0.3-1.7,0.3-2.7
			c0-1.1-0.1-2-0.3-2.7c-0.2-0.8-0.5-1.4-0.8-1.9c-0.3-0.5-0.8-0.9-1.3-1.1c-0.5-0.2-1.1-0.4-1.7-0.4c-0.6,0-1.2,0.1-1.6,0.4
			c-0.5,0.2-0.8,0.6-1.1,1C195.6,7.1,195.2,8.6,195.2,10.6z"/>
		<path d="M220.9,16.4l1.9,0.4V18h-6.4v-1.2l1.9-0.4V5.2l-1.9-0.4V3.6h6.4v1.2l-1.9,0.4V16.4z"/>
		<path d="M238,7.1c0,0.4-0.1,0.8-0.2,1.1s-0.3,0.7-0.6,0.9c-0.2,0.3-0.5,0.5-0.9,0.7c-0.3,0.2-0.7,0.3-1.1,0.4v0.1
			c1,0.2,1.9,0.7,2.5,1.3c0.6,0.7,0.9,1.5,0.9,2.5c0,0.8-0.2,1.5-0.6,2.1c-0.4,0.6-0.9,1.1-1.5,1.4c-0.2,0.1-0.4,0.2-0.6,0.2
			c-0.2,0.1-0.5,0.1-0.8,0.2c-0.3,0-0.6,0.1-1,0.1c-0.4,0-0.8,0-1.3,0h-6.6v-1.2l1.7-0.4V5.2l-1.7-0.4V3.6h7.3c1.4,0,2.5,0.3,3.2,1
			c0.3,0.3,0.6,0.7,0.8,1.1S238,6.6,238,7.1z M230.6,9.8h1.9c0.9,0,1.6-0.2,2.1-0.7c0.2-0.2,0.4-0.4,0.5-0.7c0.1-0.3,0.2-0.6,0.2-1
			c0-0.4-0.1-0.7-0.2-1c-0.1-0.3-0.3-0.5-0.5-0.7c-0.4-0.4-1.1-0.6-2-0.6h-2V9.8z M230.6,11.2v5.3h1.6c0.6,0,1.1,0,1.5-0.1
			c0.4-0.1,0.7-0.2,0.9-0.3c0.4-0.2,0.7-0.5,0.9-0.9c0.2-0.4,0.3-0.9,0.3-1.4c0-0.5-0.1-0.9-0.3-1.2c-0.2-0.3-0.4-0.6-0.7-0.8
			c-0.2-0.2-0.5-0.3-0.9-0.4c-0.4-0.1-0.9-0.1-1.4-0.1H230.6z"/>
		<path d="M250.5,13.3h-4.9l-1,3.1l1.7,0.4V18h-5.3v-1.2l1.6-0.4l4.7-13h2.5l4.6,13l1.6,0.4V18h-6.1v-1.2l1.6-0.4L250.5,13.3z
			 M246.1,11.9h3.9L248.1,6H248L246.1,11.9z M248.8,1.3c0.2-0.3,0.4-0.5,0.6-0.7c0.2-0.2,0.3-0.3,0.5-0.4c0.1-0.1,0.3-0.1,0.4-0.2
			c0.1,0,0.3,0,0.5,0c0.3,0,0.6,0.1,0.7,0.2c0.2,0.2,0.2,0.3,0.2,0.5c0,0.1,0,0.3-0.1,0.4s-0.1,0.2-0.2,0.3
			c-0.1,0.1-0.3,0.2-0.5,0.3c-0.2,0.1-0.4,0.3-0.8,0.5l-0.9,0.6h-1.7L248.8,1.3z"/>
		<path d="M260.2,5.2l-1.7-0.4V3.6h4.6l6.7,10.6v-9l-1.7-0.4V3.6h5.3v1.2l-1.7,0.4V18h-2.2l-7.4-11.5v9.9l1.7,0.4V18h-5.3v-1.2
			l1.7-0.4V5.2z M261.9,2.9c0-1,0.3-1.7,0.7-2.2s1.1-0.7,1.8-0.7c0.3,0,0.6,0.1,0.9,0.2c0.3,0.1,0.5,0.2,0.7,0.4
			c0.2,0.1,0.4,0.3,0.6,0.4c0.2,0.1,0.4,0.2,0.7,0.2c0.4,0,0.7-0.1,0.9-0.3c0.2-0.2,0.3-0.4,0.4-0.7h1.2c-0.3,2-1.1,3-2.5,3
			c-0.3,0-0.6-0.1-0.9-0.2c-0.2-0.1-0.5-0.2-0.7-0.4c-0.2-0.1-0.4-0.3-0.6-0.4c-0.2-0.1-0.4-0.2-0.7-0.2c-0.4,0-0.7,0.1-0.9,0.2
			c-0.2,0.2-0.3,0.4-0.4,0.7H261.9z"/>
		<path d="M284.4,13.2l-0.3-1.9h-2.7v5.1h5.5l0.6-3h1.8V18h-12.3v-1.2l1.9-0.4V5.2l-1.9-0.4V3.6h11.9v4.2H287l-0.6-2.8h-5.2v4.8h2.7
			l0.3-1.9h1.6v5.3H284.4z"/>
		<path d="M302.7,13.2h1.7V18h-11.9v-1.2l8.3-11.7h-5.4l-0.6,3h-1.6V3.6H304v1.2l-8.3,11.7h6.4L302.7,13.2z"/>
		<path d="M322.5,13.3h-4.9l-1,3.1l1.7,0.4V18H313v-1.2l1.6-0.4l4.7-13h2.5l4.6,13l1.6,0.4V18h-6.1v-1.2l1.6-0.4L322.5,13.3z
			 M318.2,11.9h3.9L320.2,6h-0.1L318.2,11.9z"/>
		<path d="M341.8,3.6v4.5h-1.3l-0.6-3h-3v11.3l2.1,0.5V18h-6.8v-1.2l2.1-0.5V5.1h-3.1l-0.6,3h-1.3V3.6H341.8z"/>
		<path d="M349.4,10.1l4.7-4.9l-1.8-0.4V3.6h5.9v1.2l-1.8,0.4L352,9.5l5.7,6.9l1.7,0.4V18h-6.2v-1.2l1.3-0.4l-4.2-5.2l-0.9,0.9v4.3
			l1.7,0.4V18H345v-1.2l1.9-0.4V5.2L345,4.8V3.6h6.2v1.2l-1.7,0.4V10.1z"/>
		<path d="M366.4,16.4l1.9,0.4V18h-6.4v-1.2l1.9-0.4V5.2l-1.9-0.4V3.6h6.4v1.2l-1.9,0.4V16.4z"/>
		<path d="M373.5,5.2l-1.7-0.4V3.6h4.6l6.7,10.6v-9l-1.7-0.4V3.6h5.3v1.2L385,5.2V18h-2.2l-7.4-11.5v9.9l1.7,0.4V18h-5.3v-1.2
			l1.7-0.4V5.2z"/>
		<path d="M395.7,18.2c-0.8,0-1.4-0.1-1.9-0.3c-0.5-0.2-1-0.6-1.4-1.1l-0.2,1.2h-1.7v-4.8h1.8c0,0.7,0.1,1.2,0.3,1.7
			c0.2,0.5,0.4,0.8,0.7,1.1c0.3,0.3,0.6,0.5,1,0.6c0.4,0.1,0.8,0.2,1.3,0.2c0.8,0,1.4-0.2,1.8-0.5c0.5-0.3,0.7-0.8,0.7-1.5
			c0-0.4-0.1-0.8-0.3-1.1c-0.2-0.3-0.4-0.6-0.7-0.8c-0.3-0.2-0.7-0.4-1.1-0.6c-0.4-0.2-0.9-0.4-1.5-0.6c-0.6-0.3-1.2-0.5-1.7-0.8
			c-0.5-0.3-0.9-0.6-1.2-0.9c-0.3-0.3-0.6-0.7-0.8-1.1c-0.2-0.4-0.3-0.9-0.3-1.5c0-1.3,0.4-2.3,1.2-3c0.8-0.7,1.9-1.1,3.2-1.1
			c1.3,0,2.4,0.4,3.2,1.1l0.2-0.9h1.7v4.8h-1.7c0-1.3-0.2-2.2-0.7-2.8c-0.5-0.6-1.2-0.9-2.2-0.9c-1.5,0-2.3,0.7-2.3,2.1
			c0,0.3,0.1,0.6,0.2,0.9c0.1,0.2,0.3,0.5,0.5,0.7c0.2,0.2,0.5,0.4,0.9,0.6c0.4,0.2,0.8,0.4,1.4,0.7c0.8,0.4,1.6,0.7,2.1,1.1
			c0.6,0.3,1,0.7,1.4,1c0.4,0.3,0.6,0.7,0.8,1.1c0.2,0.4,0.2,0.8,0.2,1.3c0,0.7-0.1,1.3-0.4,1.8c-0.3,0.5-0.6,0.9-1,1.3
			c-0.4,0.3-1,0.6-1.6,0.8C397,18.1,396.3,18.2,395.7,18.2z"/>
		<path d="M418.1,10.6c0,1.1-0.2,2.2-0.5,3.2c-0.3,1-0.8,1.9-1.5,2.6c-0.6,0.6-1.3,1-2.1,1.3c-0.8,0.3-1.8,0.4-2.9,0.4
			c-1.1,0-2.1-0.1-2.9-0.4c-0.8-0.3-1.5-0.7-2-1.3c-0.6-0.6-1.1-1.4-1.4-2.4c-0.3-1-0.5-2-0.5-3.2c0-1.2,0.2-2.3,0.5-3.3
			s0.8-1.9,1.5-2.5c0.6-0.6,1.2-1,2-1.3c0.8-0.3,1.7-0.4,2.9-0.4c1.1,0,2,0.1,2.8,0.4c0.8,0.3,1.5,0.7,2.1,1.3
			c0.7,0.7,1.2,1.5,1.5,2.5C417.9,8.6,418.1,9.6,418.1,10.6z M407.2,10.6c0,1,0.1,2,0.3,2.8c0.2,0.8,0.5,1.5,0.8,2
			c0.3,0.5,0.7,0.9,1.2,1.1c0.5,0.3,1.1,0.4,1.8,0.4c1.3,0,2.2-0.4,2.8-1.3c0.3-0.5,0.6-1.1,0.8-1.8c0.2-0.8,0.3-1.7,0.3-2.7
			c0-1.1-0.1-2-0.3-2.7c-0.2-0.8-0.5-1.4-0.8-1.9c-0.3-0.5-0.8-0.9-1.3-1.1c-0.5-0.2-1.1-0.4-1.7-0.4c-0.6,0-1.2,0.1-1.6,0.4
			c-0.5,0.2-0.8,0.6-1.1,1C407.6,7.1,407.2,8.6,407.2,10.6z"/>
		<path d="M423.3,5.2l-1.7-0.4V3.6h4.6l6.7,10.6v-9l-1.7-0.4V3.6h5.3v1.2l-1.7,0.4V18h-2.2l-7.4-11.5v9.9l1.7,0.4V18h-5.3v-1.2
			l1.7-0.4V5.2z"/>
	</g>
</g>
</svg>
