<!-- Generator: Adobe Illustrator 19.1.0, SVG Export Plug-In  -->
<svg version="1.1"
	 xmlns="http://www.w3.org/2000/svg" xmlns:xlink="http://www.w3.org/1999/xlink" xmlns:a="http://ns.adobe.com/AdobeSVGViewerExtensions/3.0/"
	 x="0px" y="0px" width="118.7px" height="118.7px" viewBox="0 0 118.7 118.7" enable-background="new 0 0 118.7 118.7"
	 xml:space="preserve">
<defs>
</defs>
<g id="post_2_">
	<g>
		<path fill="#4CC3C7" d="M91.5,24.7c-10.8,0-42,0-42,0V0H27.2v9.9h12.4v14.8h-2.5C16.7,24.7,0,39.9,0,59.3V94h54.4v24.7h9.8V94
			h54.5V56.9C118.7,41,107.4,24.7,91.5,24.7z M64.3,56.9v27.2H9.9V59.3c0-14,12.3-24.7,27.2-24.7h2.5v17.3c-3,1.7-4.9,3.8-4.9,7.4
			c0,5.5,4.1,9.9,9.7,9.9s10.1-4.4,10.1-9.9c0-3.7-2-5.7-4.9-7.4V34.6h22.3C66.8,40.7,64.3,48.8,64.3,56.9z M108.8,84.1H74.2V56.9
			c0-10.5,7.3-22.3,17.3-22.3s17.3,11.8,17.3,22.3V84.1z"/>
	</g>
</g>
</svg>
