<!-- Generator: Adobe Illustrator 19.1.0, SVG Export Plug-In  -->
<svg version="1.1"
	 xmlns="http://www.w3.org/2000/svg" xmlns:xlink="http://www.w3.org/1999/xlink" xmlns:a="http://ns.adobe.com/AdobeSVGViewerExtensions/3.0/"
	 x="0px" y="0px" width="96.8px" height="69px" viewBox="0 0 96.8 69" enable-background="new 0 0 96.8 69" xml:space="preserve">
<defs>
</defs>
<g>
	<path fill="#3BAEB5" d="M89.3,0H7.5C3.4,0,0,3.4,0,7.5v54C0,65.6,3.4,69,7.5,69h81.8c4.1,0,7.5-3.4,7.5-7.5v-54
		C96.9,3.4,93.6,0,89.3,0z M61.3,36.5l31.2-24.1v48.3L61.3,36.5z M7.7,4.5h81.6c1.4,0,2.7,1.1,3,2.3L51,38.8c-1.6,1.2-4.3,1.2-5.7,0
		L4.5,7.1C4.8,5.7,6.1,4.5,7.7,4.5z M4.5,60.8V12.8l30.8,23.9L4.5,60.8z M7.7,64.9c-0.4,0-0.7,0-0.9-0.2L39,39.6l3.6,2.9
		c1.6,1.2,3.6,1.8,5.5,1.8s4.1-0.5,5.5-1.8l3.9-3l32.6,25.3c-0.4,0.2-0.5,0.2-0.9,0.2L7.7,64.9L7.7,64.9z"/>
</g>
</svg>
