<!-- Generator: Adobe Illustrator 19.1.0, SVG Export Plug-In  -->
<svg version="1.1"
	 xmlns="http://www.w3.org/2000/svg" xmlns:xlink="http://www.w3.org/1999/xlink" xmlns:a="http://ns.adobe.com/AdobeSVGViewerExtensions/3.0/"
	 x="0px" y="0px" width="118.5px" height="61.3px" viewBox="0 0 118.5 61.3" enable-background="new 0 0 118.5 61.3"
	 xml:space="preserve">
<defs>
</defs>
<g>
	<g>
		<g>
			<path fill="#FFFFFF" d="M25.8,17.8c0.4-1.2,0.7-2.2,1-3.3c0.4-1.2,0.8-2.4,1.2-3.6c0-0.1,0.2-0.2,0.2-0.2c2,0,4,0,6.1,0
				c0,0.6,0,1.2,0,1.8c-0.5,0-1,0-1.5,0c0,3,0,5.9,0,8.8c0.5,0,1,0,1.5,0c0,0.6,0,1.2,0,1.8c-2.2,0-4.4,0-6.6,0c0-0.6,0-1.2,0-1.8
				c0.5,0,0.9,0,1.4,0c0-2.8,0-5.6,0-8.3c0,0,0,0-0.1,0c-0.1,0.1-0.1,0.2-0.2,0.3c-1.1,3.1-2.1,6.1-3.2,9.2c-0.3,0.7-0.2,0.7-1,0.7
				c-0.6,0-0.6,0-0.9-0.6c-1.1-3.1-2.2-6.2-3.4-9.3c0-0.1-0.1-0.2-0.2-0.3c0,0-0.1,0-0.1,0c0,2.8,0,5.5,0,8.3c0.4,0,0.9,0,1.4,0
				c0,0.6,0,1.2,0,1.8c-1.6,0-3.1,0-4.7,0c0-0.6,0-1.2,0-1.8c0.5,0,0.9,0,1.4,0c0-3,0-5.9,0-8.8c-0.5,0-0.9,0-1.4,0
				c0-0.6,0-1.2,0-1.8c0.1,0,0.2,0,0.3,0c1.9,0,3.9,0,5.8,0c0.2,0,0.3,0.1,0.4,0.3c0.8,2.2,1.5,4.4,2.3,6.6
				C25.7,17.6,25.8,17.7,25.8,17.8z"/>
			<path fill="#FFFFFF" d="M62.2,21.3c0.5,0,1,0,1.6,0c0,0.6,0,1.2,0,1.8c-2.2,0-4.5,0-6.7,0c0-0.6,0-1.2,0-1.8c0.5,0,1,0,1.5,0
				c0-3,0-5.9,0-8.8c-0.5,0-1,0-1.5,0c0-0.6,0-1.2,0-1.8c0.1,0,0.2,0,0.4,0c2.4,0,4.7,0,7.1,0c1,0,2.1,0.1,3,0.6
				c1,0.5,1.7,1.2,1.8,2.3c0.1,1-0.2,2-1.4,2.6c-0.8,0.4-1.6,0.6-2.4,0.7c-0.1,0-0.2,0.1-0.3,0.1c0.5,0.1,0.9,0.1,1.4,0.3
				c1,0.3,1.8,0.8,2,1.9c0.1,0.4,0.1,0.7,0.1,1.1c0,0.3,0,0.5,0.1,0.8c0.1,0.4,0.6,0.5,0.8,0.1c0.2-0.2,0.3-0.5,0.4-0.8
				c0.1-0.2,0.1-0.2,0.3-0.2c0.2,0.1,0.3,0.1,0.5,0.1c0.5,0.1,0.5,0.1,0.4,0.6c-0.2,0.8-0.5,1.5-1.2,2c-0.7,0.5-1.5,0.6-2.3,0.5
				c-0.4-0.1-0.8-0.1-1.2-0.3c-0.8-0.3-1.1-1-1.3-1.8c-0.1-0.6-0.1-1.3-0.1-2c0-0.2,0-0.5-0.1-0.7c-0.1-0.5-0.5-0.9-1.1-0.9
				c-0.5,0-1.1,0-1.7,0C62.2,19,62.2,20.1,62.2,21.3z M62.2,16.1c0.8,0,1.5,0,2.2-0.1c0.6-0.1,1-0.4,1.1-1c0.1-0.5,0.1-1,0-1.5
				c0-0.6-0.5-0.9-1-1.1c-0.1,0-0.3,0-0.4,0c-0.6,0-1.3,0-1.9,0C62.2,13.6,62.2,14.8,62.2,16.1z"/>
			<path fill="#FFFFFF" d="M48.6,12.4c0,1.2,0,2.4,0,3.6c0.4,0,0.8,0,1.2,0c0.4,0,0.6-0.3,0.7-0.7c0.1-0.3,0.1-0.6,0.2-0.9
				c0.5,0,1.1,0,1.7,0c0,1.7,0,3.3,0,5c-0.6,0-1.1,0-1.6,0c-0.1-0.4-0.1-0.7-0.2-1.1c-0.1-0.4-0.3-0.5-0.7-0.5c-0.4,0-0.7,0-1.1,0
				c0,1.2,0,2.4,0,3.6c0.4,0,0.8,0,1.2,0c0.7,0,1.4,0,2.2-0.1c1-0.1,1.5-0.8,1.6-1.7c0.1-0.5,0.2-1.1,0.3-1.7c0.6,0,1.2,0,1.9,0
				c0,1.7,0,3.4,0,5.1c-4.1,0-8.2,0-12.4,0c0-0.6,0-1.2,0-1.8c0.5,0,1,0,1.5,0c0-3,0-5.9,0-8.8c-0.5,0-1,0-1.5,0c0-0.6,0-1.2,0-1.8
				c4,0,8.1,0,12.2,0c0,1.5,0,3,0,4.6c-0.6,0-1.3,0-1.9,0c-0.1-0.5-0.2-1-0.4-1.5c-0.3-0.9-0.7-1.3-1.8-1.3
				C50.6,12.4,49.6,12.4,48.6,12.4z"/>
			<path fill="#FFFFFF" d="M71.2,23.2c0-0.6,0-1.2,0-1.8c0.5,0,1,0,1.5,0c0-3,0-5.9,0-8.8c-0.5,0-1,0-1.5,0c0-0.6,0-1.2,0-1.8
				c0.1,0,0.2,0,0.3,0c1.9,0,3.9,0,5.8,0c1.6,0,3.1,0.3,4.5,1.1c1.4,0.8,2.2,2,2.5,3.6c0.3,1.4,0.2,2.8-0.4,4.1
				c-0.7,1.7-2,2.6-3.7,3.1c-1.1,0.3-2.2,0.4-3.4,0.5c-1.8,0-3.6,0-5.4,0C71.5,23.2,71.4,23.2,71.2,23.2z M76.4,21.4
				c0.7,0,1.3,0,1.9-0.1c0.9-0.1,1.7-0.6,2-1.6c0.2-0.6,0.4-1.2,0.4-1.8c0-1,0-1.9-0.1-2.9c-0.2-1.2-0.7-2.1-2-2.4
				c-0.7-0.2-1.5-0.2-2.2-0.2C76.4,15.4,76.4,18.4,76.4,21.4z"/>
			<path fill="#FFFFFF" d="M99,21.3c0,0.6,0,1.2,0,1.8c-2.3,0-4.5,0-6.8,0c0-0.6,0-1.2,0-1.8c0.5,0,1,0,1.6,0
				c-0.2-0.5-0.3-0.9-0.4-1.3c-0.2-0.7-0.2-0.7-1-0.7c-1,0-2.1,0-3.1,0c-0.2,0-0.3,0.1-0.4,0.3c-0.2,0.6-0.4,1.1-0.6,1.7
				c0.5,0,1,0,1.6,0c0,0.6,0,1.2,0,1.8c-1.6,0-3.3,0-4.9,0c0-0.6,0-1.2,0-1.8c0.3,0,0.7,0,1,0c0.3,0,0.4-0.1,0.5-0.3
				c0.7-2,1.4-4,2.2-6c0.5-1.4,1-2.8,1.5-4.1c0.1-0.2,0.2-0.3,0.4-0.3c1,0,2,0,3.1,0c0.2,0,0.3,0.1,0.4,0.3
				c1.2,3.4,2.5,6.7,3.7,10.1c0.1,0.3,0.2,0.4,0.5,0.4C98.4,21.3,98.7,21.3,99,21.3z M92.5,17.7c-0.5-1.5-1-3-1.5-4.5
				c0,0-0.1,0-0.1,0c-0.5,1.5-1,3-1.5,4.5C90.5,17.7,91.5,17.7,92.5,17.7z"/>
			<path fill="#FFFFFF" d="M38.1,30.6c0.2,0.2,0.5,0.3,0.7,0.4c0.7,0.6,0.9,1.4,0.8,2.3c-0.1,1.4-1.2,2.1-2.4,2.4
				c-0.8,0.2-1.7,0.2-2.5,0.1c-0.2,0-0.5,0-0.8,0.1c-0.2,0.1-0.4,0.3-0.3,0.5c0.1,0.2,0.2,0.4,0.4,0.4c0.4,0.1,0.7,0.1,1.1,0.1
				c1,0,2,0,3,0c0.6,0,1.3,0.1,1.8,0.5c0.7,0.4,1,1,1.1,1.8c0.1,1.6-0.9,2.5-2.3,3c-0.8,0.2-1.6,0.3-2.4,0.4c-0.8,0.1-1.7,0.1-2.5,0
				c-0.8-0.1-1.7-0.2-2.4-0.7c-0.8-0.6-0.8-1.8,0.1-2.3c0.4-0.2,0.8-0.3,1.2-0.5c0.1,0,0.2,0,0.3-0.1c-0.1,0-0.2-0.1-0.4-0.1
				c-0.6-0.2-1.1-0.5-1.3-1.2c-0.2-0.7,0.1-1.4,0.7-1.8c0.4-0.2,0.8-0.4,1.3-0.5c0.1,0,0.2,0,0.3-0.1c-0.3-0.1-0.7-0.3-1-0.4
				c-1.4-0.8-1.4-2.8-0.3-3.8c0.7-0.6,1.5-0.8,2.3-0.9c0.8-0.1,1.6,0,2.5,0.1c0.1-0.3,0.3-0.6,0.4-0.8c0.6-1.1,1.8-1.5,3-1.2
				c0.7,0.2,1,0.8,1,1.6c-0.1,0.5-0.5,1-1.2,1c-0.7,0-1.2-0.3-1.3-1.1c0-0.1,0-0.1,0-0.2C38.6,29.7,38.4,30,38.1,30.6z M35.4,39.6
				C35.4,39.6,35.4,39.6,35.4,39.6c-0.5,0-1,0-1.5,0c-0.3,0-0.7,0.1-0.9,0.3c-0.4,0.2-0.4,0.7,0,1c0.1,0.1,0.3,0.2,0.4,0.2
				c1.1,0.3,2.2,0.3,3.3,0.2c0.3,0,0.6-0.2,0.9-0.3c0.4-0.2,0.5-0.5,0.5-0.8c-0.1-0.4-0.4-0.5-0.7-0.5
				C36.8,39.6,36.1,39.6,35.4,39.6z M34.5,33.1c0.1,0.4,0.1,0.8,0.2,1.2c0.1,0.5,0.5,0.6,1,0.6c0.4,0,0.6-0.2,0.8-0.6
				c0.3-0.8,0.2-1.6,0-2.4c-0.1-0.4-0.5-0.7-0.9-0.7c-0.4,0-0.8,0.2-0.9,0.7C34.6,32.3,34.5,32.7,34.5,33.1z"/>
			<path fill="#FFFFFF" d="M29.3,37.7c0.4,0,0.8,0,1.2,0c0,0.6,0,1.1,0,1.7c-1.8,0-3.5,0-5.3,0c0-0.5,0-1.1,0-1.7c0.3,0,0.6,0,0.9,0
				c0-0.1,0-0.2,0-0.3c0-1.3,0-2.6,0-4c0-1-0.7-1.4-1.4-1.2c-0.7,0.1-1,0.7-1.2,1.3c-0.1,0.3-0.1,0.7-0.1,1c0,1,0,2.1,0,3.1
				c0.3,0,0.6,0,0.8,0c0,0.6,0,1.1,0,1.7c-1.7,0-3.5,0-5.2,0c0-0.5,0-1.1,0-1.7c0.4,0,0.8,0,1.2,0c0-1.9,0-3.7,0-5.6
				c-0.4,0-0.8,0-1.2,0c0-0.6,0-1.1,0-1.7c1.4,0,2.7,0,4.1,0c0,0.7,0,1.5,0,2.2c0,0,0,0,0.1,0c0.1-0.1,0.1-0.3,0.2-0.4
				c0.4-1,1.1-1.7,2.2-2c1.3-0.3,2.8,0.1,3.3,1.3c0.2,0.5,0.4,1.1,0.4,1.6c0.1,1.4,0,2.7,0,4.1C29.3,37.4,29.3,37.5,29.3,37.7z"/>
			<path fill="#FFFFFF" d="M77.2,37.7c0-1.9,0-3.7,0-5.6c-0.4,0-0.8,0-1.2,0c0-0.6,0-1.1,0-1.7c1.4,0,2.7,0,4.1,0c0,0.7,0,1.5,0,2.2
				c0,0,0,0,0.1,0c0.1-0.1,0.1-0.3,0.2-0.4c0.4-1,1.1-1.7,2.2-2c1.3-0.3,2.7,0.1,3.3,1.3c0.2,0.5,0.4,1.1,0.4,1.6
				c0.1,1.4,0,2.7,0,4.1c0,0.1,0,0.2,0,0.4c0.4,0,0.8,0,1.2,0c0,0.6,0,1.1,0,1.7c-1.8,0-3.5,0-5.3,0c0-0.6,0-1.1,0-1.7
				c0.3,0,0.6,0,0.9,0c0-0.1,0-0.2,0-0.3c0-1.3,0-2.6,0-4c0-0.6-0.3-1.1-0.9-1.2c-0.5-0.1-1,0-1.3,0.5c-0.2,0.3-0.4,0.8-0.5,1.2
				c-0.1,1.3,0,2.5,0,3.8c0.3,0,0.5,0,0.8,0c0,0.6,0,1.1,0,1.7c-1.7,0-3.5,0-5.2,0c0-0.5,0-1.1,0-1.7C76.4,37.7,76.8,37.7,77.2,37.7
				z"/>
			<path fill="#FFFFFF" d="M74.8,37c0.3,0.1,0.6,0.2,1,0.2c-0.2,1.4-0.9,2.3-2.2,2.4c-1.3,0.1-2-0.4-2.6-2.1
				c-0.1,0.1-0.1,0.2-0.2,0.3c-0.6,1.4-1.9,1.9-3.4,1.7c-0.7-0.1-1.4-0.4-1.8-0.9c-0.8-1-0.6-2.6,0.6-3.3c0.7-0.4,1.6-0.6,2.4-0.8
				c0.6-0.1,1.2-0.2,1.8-0.3c0.2,0,0.3-0.1,0.3-0.3c0-0.4,0-0.9-0.1-1.3c-0.1-0.5-0.5-0.9-1.1-0.9c-0.7-0.1-1,0-1.3,0.1
				c0.1,0.3,0.2,0.7,0.3,1c0.1,0.7-0.5,1.1-1.1,1.2c-0.3,0-0.6,0-0.9,0c-1-0.2-1.3-1.5-0.7-2.4c0.4-0.6,1.1-1,1.9-1.1
				c1.4-0.4,2.7-0.5,4.1-0.1c1.3,0.4,2,1.4,2,2.7c0,1.4,0,2.7,0,4.1c0,0.1,0,0.2,0,0.3c0.1,0.2,0.2,0.4,0.3,0.4
				c0.2,0.1,0.4-0.1,0.5-0.3C74.6,37.4,74.7,37.2,74.8,37z M70.7,35.1c-0.3,0-0.4,0.1-0.6,0.1c-0.5,0.1-1,0.2-1.4,0.5
				c-0.4,0.4-0.5,0.8-0.4,1.3c0.1,0.4,0.4,0.7,0.9,0.8c0.6,0.1,1.1-0.2,1.3-0.9C70.6,36.3,70.6,35.8,70.7,35.1z"/>
			<path fill="#FFFFFF" d="M41,34.9c-0.1-2.4,1.7-4.3,3.9-4.6c1.6-0.3,3.2,0,4.5,1c0.9,0.7,1.4,1.7,1.5,2.9c0.2,1.2-0.1,2.4-0.8,3.4
				c-0.9,1.2-2.1,1.8-3.5,2c-1.1,0.1-2.1,0-3.1-0.5C42,38.4,40.9,36.9,41,34.9z M44.4,34.9C44.4,34.9,44.4,34.9,44.4,34.9
				c0.1,0.3,0,0.6,0.1,0.9c0.1,0.6,0.2,1.1,0.4,1.7c0.2,0.5,0.6,0.8,1.2,0.8c0.5,0,0.9-0.2,1.1-0.7c0.2-0.5,0.3-1,0.3-1.5
				c0.1-0.7,0-1.3,0-2c0-0.5-0.1-1-0.3-1.4c-0.2-0.7-0.7-1-1.3-1c-0.6,0-1.1,0.4-1.2,1.1C44.5,33.4,44.5,34.1,44.4,34.9z"/>
			<path fill="#FFFFFF" d="M37.1,12.5c-0.5,0-1,0-1.5,0c0-0.6,0-1.2,0-1.8c2.2,0,4.4,0,6.7,0c0,0.6,0,1.2,0,1.8c-0.5,0-1,0-1.5,0
				c0,3,0,5.9,0,8.8c0.5,0,1,0,1.5,0c0,0.6,0,1.2,0,1.8c-2.2,0-4.4,0-6.7,0c0-0.6,0-1.2,0-1.8c0.5,0,1,0,1.5,0
				C37.1,18.4,37.1,15.5,37.1,12.5z"/>
			<path fill="#FFFFFF" d="M18,35.4c-1.1,0-2.1,0-3.1,0c-1,0-2,0-3,0c-0.1,1.3,0.5,2.3,1.5,2.5c1.1,0.2,2.2,0.1,2.6-1.3
				c0-0.1,0.1-0.2,0.2-0.2c0.5,0,1,0,1.5,0c-0.1,1.2-0.8,2.3-2,2.8c-0.9,0.4-1.9,0.4-2.9,0.3c-0.9-0.1-1.8-0.4-2.6-1
				c-0.9-0.7-1.4-1.6-1.6-2.7c-0.2-1.4,0-2.6,0.8-3.7c0.8-1.1,1.9-1.7,3.3-1.9c0.8-0.1,1.5,0,2.2,0.2c1.6,0.5,2.4,1.6,2.7,3.1
				C18,34.1,18,34.7,18,35.4z M15,34c-0.1-0.6-0.2-1.2-0.4-1.8c-0.1-0.5-0.5-0.7-1-0.7c-0.5,0-0.9,0.1-1.2,0.6
				C12,32.7,12,33.4,11.9,34C12.9,34,13.9,34,15,34z"/>
			<path fill="#FFFFFF" d="M107.6,35.4c-2.1,0-4.1,0-6.1,0c-0.1,1.1,0.4,2.2,1.3,2.4c1.2,0.3,2.4,0.2,3-1.4c0.5,0,1.1,0,1.7,0
				c-0.2,1.4-0.9,2.4-2.3,2.9c-1.4,0.5-2.9,0.4-4.3-0.1c-1.5-0.6-2.4-1.7-2.6-3.3c-0.2-1.4,0-2.7,0.9-3.8c0.8-1.1,1.9-1.6,3.2-1.8
				c0.8-0.1,1.5,0,2.2,0.2c1.6,0.5,2.4,1.6,2.7,3.1C107.6,34.1,107.6,34.7,107.6,35.4z M104.5,34c-0.1-0.6-0.1-1.3-0.4-1.9
				c-0.4-0.8-1.7-0.9-2.2-0.1c-0.4,0.6-0.4,1.2-0.4,1.9C102.6,34,103.5,34,104.5,34z"/>
			<path fill="#FFFFFF" d="M95.1,32.2c-0.8-0.9-2.4-0.7-3,0.5c-0.4,0.9-0.5,1.8-0.4,2.8c0.1,0.6,0.2,1.2,0.7,1.7
				c0.8,0.8,2.4,0.7,3-0.4c0.3-0.6,0.6-0.7,1.2-0.6c0.3,0,0.5,0,0.8,0c0,0.1,0,0.2,0,0.2c-0.4,1.6-1.4,2.7-3.1,3
				c-1.8,0.3-3.5,0-4.8-1.3c-0.7-0.7-1.1-1.6-1.2-2.6c-0.1-1.3,0.1-2.5,0.9-3.5c0.7-1,1.7-1.5,2.8-1.8c1.2-0.3,2.4-0.2,3.6,0.3
				c1.1,0.5,1.7,1.3,1.9,2.4c0.1,0.6-0.2,1.4-0.8,1.7c-0.6,0.3-1.4,0.2-1.9-0.2c-0.6-0.5-0.6-1.8,0.2-2.2
				C95,32.3,95.1,32.3,95.1,32.2z"/>
			<path fill="#FFFFFF" d="M64.2,36.3c-0.2,1.4-1.1,2.8-2.8,3.2c-1.5,0.3-3,0.2-4.4-0.7c-1.1-0.7-1.7-1.8-1.9-3.1
				c-0.1-0.9,0-1.8,0.3-2.6c0.5-1.2,1.3-2,2.5-2.5c1.5-0.6,3-0.6,4.5,0c1.1,0.5,1.7,1.3,1.8,2.4c0.1,0.6-0.2,1.4-0.8,1.7
				c-0.6,0.3-1.4,0.2-1.9-0.3c-0.5-0.5-0.6-1.8,0.3-2.2c0,0,0.1-0.1,0.1-0.1c-0.6-0.8-2.1-0.8-2.8,0.2c-0.4,0.6-0.6,1.3-0.7,2
				c-0.1,0.7,0,1.5,0.3,2.2c0.4,0.8,1,1.3,1.8,1.3c0.8,0,1.5-0.4,1.8-1.2c0.1-0.2,0.2-0.3,0.5-0.3C63.3,36.3,63.8,36.3,64.2,36.3z"
				/>
			<path fill="#FFFFFF" d="M6.7,35.9c0.4,0.1,0.8,0.2,1.2,0.3c-0.2,1.2-0.4,2.4-1.7,3c-1.1,0.6-2.3,0.5-3.4,0
				C2,38.8,1.6,37.9,1.6,37c-0.1-1.5-0.1-3-0.1-4.5c0-0.1,0-0.3,0-0.4c-0.5,0-1,0-1.5,0c0-0.6,0-1.1,0-1.6c0.5,0,1,0,1.6,0
				c0-0.7,0-1.3,0-2c1-0.1,2-0.2,3.1-0.4c0,0.8,0,1.6,0,2.4c1,0,1.9,0,2.8,0c0,0.5,0,1.1,0,1.6c-0.9,0-1.9,0-2.8,0
				c0,0.1,0,0.2,0,0.3c0,1.3,0,2.7,0,4c0,0.3,0.1,0.6,0.2,0.8c0.3,0.6,1,0.6,1.3,0c0.2-0.3,0.3-0.7,0.4-1.1
				C6.6,36.1,6.7,36,6.7,35.9z"/>
			<path fill="#FFFFFF" d="M112.8,32.6c0.2-0.4,0.3-0.7,0.6-1.1c0.5-0.8,1.2-1.3,2.1-1.4c1-0.1,2,0.6,2.1,1.8c0,1-0.6,1.6-1.1,1.8
				c-1.1,0.3-1.9-0.2-2.1-1.4c-0.6,0.2-1.3,1-1.3,1.6c0,1.2,0,2.5,0,3.8c0.5,0,1.1,0,1.6,0c0,0.6,0,1.1,0,1.7c-2,0-4,0-6,0
				c0-0.5,0-1.1,0-1.7c0.4,0,0.8,0,1.2,0c0-1.9,0-3.7,0-5.6c-0.4,0-0.8,0-1.2,0c0-0.6,0-1.1,0-1.7c1.4,0,2.7,0,4.1,0
				C112.8,31.2,112.8,31.9,112.8,32.6C112.8,32.6,112.8,32.6,112.8,32.6z"/>
			<path fill="#FFFFFF" d="M74,60.3c1,0.5,2.1,0.2,2.7-0.8c0.4-0.7,0.7-1.4,0.8-2.2c0,0,0-0.1,0-0.2c-0.3,0.2-0.5,0.4-0.7,0.6
				c-0.9,0.7-2.1,0.7-2.9,0c-0.6-0.5-0.8-1.3-0.8-2.1c0.1-1,0.3-1.9,0.9-2.7c0.6-0.8,1.3-1.5,2.3-1.8c1-0.3,1.9,0,2.4,1.1
				c0.1-0.3,0.2-0.5,0.2-0.8c0-0.2,0.1-0.3,0.3-0.3c0.4,0,0.8,0,1.2,0c-0.1,0.4-0.2,0.8-0.3,1.2c-0.5,1.9-0.9,3.8-1.4,5.6
				c-0.2,0.9-0.6,1.7-1.3,2.3c-0.9,0.9-2,1.1-3.2,1c-0.4-0.1-0.9-0.1-1.2-0.3c-0.8-0.4-1-1.4-0.3-2.1c0.3-0.3,0.8-0.4,1.1-0.1
				c0.3,0.2,0.4,0.6,0.3,1C74.2,60,74.1,60.1,74,60.3z M78.4,53.5c0-0.1,0-0.1,0-0.2c0-0.6-0.2-1.1-0.7-1.3c-0.5-0.2-1,0-1.4,0.3
				c-0.5,0.4-0.8,0.9-1,1.5c-0.3,0.8-0.5,1.6-0.3,2.5c0.1,0.5,0.4,0.8,0.8,0.9c0.4,0,0.8-0.1,1.1-0.3C77.9,56,78.3,54.8,78.4,53.5z"
				/>
			<path fill="#FFFFFF" d="M56.6,48.6c0.1-0.4,0.2-0.8,0.3-1.2c1,0,1.9,0,3,0c-0.7,2.3-1.3,4.6-2,7c0,0,0.1,0,0.1,0
				c0.2-0.3,0.3-0.6,0.5-0.9c0.5-0.8,1-1.5,1.7-2c0.4-0.3,0.9-0.5,1.4-0.4c0.6,0.1,1,0.6,1.1,1.2c0.2,0.8-0.1,1.4-0.3,2.1
				c-0.2,0.8-0.5,1.7-0.8,2.5c-0.1,0.2-0.1,0.5,0.1,0.7c0.3,0.1,0.5-0.1,0.6-0.3c0.2-0.3,0.4-0.6,0.5-1c0.1-0.3,0.2-0.4,0.5-0.3
				c0.1,0,0.2,0.1,0.3,0.1c-0.3,0.8-0.6,1.6-1.2,2.2c-0.5,0.5-1.2,0.5-1.7,0.2c-0.5-0.3-0.7-1-0.6-1.6c0.1-1,0.5-2,0.8-3
				c0.1-0.3,0.2-0.7,0.2-1c0-0.2,0-0.5-0.2-0.6c-0.1-0.1-0.5-0.1-0.7,0c-0.6,0.3-1,0.9-1.4,1.4c-0.9,1.4-1.4,2.9-1.9,4.5
				c0,0.1-0.1,0.2-0.1,0.3c-0.5,0-1,0-1.6,0c0.9-3.3,1.8-6.6,2.7-10C57.6,48.6,57.1,48.6,56.6,48.6z"/>
			<path fill="#FFFFFF" d="M30.1,60.1c0.5,0,0.9,0,1.3,0c0.1,0,0.2-0.1,0.3-0.2c0.3-0.9,0.5-1.7,0.7-2.6c0,0,0-0.1,0-0.2
				c-0.1,0.2-0.2,0.3-0.3,0.4c-0.4,0.6-1,1-1.8,1.1c-0.8,0.1-1.6-0.3-2-1.3c-0.5-1.2-0.3-2.5,0.3-3.6c0.6-1.2,1.5-2,2.7-2.5
				c0.9-0.4,1.9-0.3,2.3,1c0.1-0.3,0.2-0.6,0.2-0.9c0-0.1,0.1-0.2,0.2-0.2c0.4,0,0.8,0,1.3,0c-0.8,3-1.6,6-2.4,9c0.4,0,0.8,0,1.2,0
				c-0.1,0.3-0.2,0.7-0.3,1c0,0-0.1,0.1-0.2,0.1c-1.4,0-2.7,0-4.1,0C29.9,60.8,30,60.4,30.1,60.1z M32.4,51.9c-0.4,0-0.8,0.1-1,0.4
				c-1.2,1.2-1.7,2.7-1.5,4.3c0.1,0.6,0.5,1,1.1,0.8c0.3-0.1,0.5-0.2,0.7-0.4c0.8-0.7,1.2-1.7,1.5-2.7c0.2-0.6,0.3-1.3,0.1-1.9
				C33.1,52.1,32.8,51.9,32.4,51.9z"/>
			<path fill="#FFFFFF" d="M44.1,51.1c-0.5,1.7-0.9,3.4-1.3,5c-0.1,0.3-0.1,0.6-0.2,0.9c0,0.1,0.1,0.4,0.2,0.4c0.2,0,0.4,0,0.5-0.1
				c0.2-0.2,0.3-0.4,0.4-0.7c0.1-0.2,0.2-0.5,0.4-0.8c0.2,0.1,0.4,0.1,0.7,0.2c-0.3,0.9-0.6,1.7-1.3,2.3c-0.6,0.5-1.4,0.5-1.8,0
				c-0.2-0.2-0.3-0.6-0.3-0.8c-0.1-0.7,0.1-1.3,0.3-1.9c0-0.1,0-0.1,0-0.2c-0.1,0.1-0.1,0.2-0.2,0.3c-0.4,0.9-0.9,1.7-1.6,2.3
				c-0.3,0.2-0.6,0.4-0.9,0.6c-1.1,0.4-1.9-0.3-1.9-1.3c-0.1-0.9,0.3-1.8,0.6-2.7c0.2-0.6,0.3-1.1,0.5-1.7c0-0.1,0-0.2,0-0.3
				c0-0.2-0.1-0.3-0.1-0.5c-0.2,0.1-0.4,0.1-0.5,0.2c-0.3,0.3-0.4,0.7-0.7,1c-0.1,0.1-0.1,0.2-0.2,0.3c-0.2-0.1-0.5-0.2-0.7-0.3
				c0.3-0.8,0.7-1.5,1.3-2c0.4-0.3,0.8-0.5,1.3-0.4c0.6,0.1,0.9,0.6,0.9,1.2c0.1,1-0.3,2-0.6,2.9c-0.2,0.6-0.5,1.2-0.4,1.8
				c0,0.5,0.3,0.7,0.7,0.5c0.3-0.2,0.7-0.5,0.9-0.8c0.8-1,1.3-2.2,1.7-3.4c0.2-0.6,0.4-1.2,0.6-1.9c0-0.1,0.2-0.2,0.2-0.2
				C43.1,51.1,43.6,51.1,44.1,51.1z"/>
			<path fill="#FFFFFF" d="M70.1,52.2c0.1-0.3,0.2-0.6,0.2-0.9c0-0.2,0.1-0.3,0.3-0.2c0.4,0,0.8,0,1.2,0c-0.2,0.7-0.4,1.3-0.5,1.9
				c-0.3,1.2-0.6,2.4-1,3.6c0,0.2-0.1,0.4,0,0.5c0,0.1,0.1,0.3,0.2,0.4c0.1,0,0.3,0,0.4-0.1c0.2-0.2,0.3-0.4,0.5-0.6
				c0.1-0.1,0.1-0.2,0.2-0.3c0.3-0.6,0.3-0.6,0.9-0.3c-0.3,0.8-0.6,1.6-1.2,2.2c-0.4,0.3-0.8,0.5-1.3,0.4c-0.6-0.1-1-0.6-1-1.3
				c0-0.1,0-0.3-0.1-0.4c-0.1,0.1-0.1,0.2-0.2,0.3c-0.5,0.7-1,1.2-1.9,1.4c-1,0.2-1.8-0.4-2.2-1.2c-0.5-1.3-0.2-2.5,0.3-3.6
				c0.6-1.3,1.6-2.3,3-2.7c0.3-0.1,0.7-0.1,1,0c0.5,0.1,0.7,0.4,0.9,0.8C70,52,70,52.1,70.1,52.2z M68.6,51.9
				c-0.3,0.1-0.6,0.2-0.8,0.4c-0.2,0.2-0.5,0.4-0.6,0.6c-0.8,1.1-1.2,2.3-1.1,3.7c0.1,0.4,0.2,0.8,0.6,0.9c0.4,0.2,0.8,0.1,1.1-0.2
				c0.2-0.2,0.4-0.4,0.6-0.6c0.6-0.8,0.9-1.8,1.2-2.8c0.1-0.5,0.1-0.9-0.1-1.4C69.4,52.1,69.1,51.9,68.6,51.9z"/>
			<path fill="#FFFFFF" d="M81.2,55.6c0.1-1.9,1.1-3.6,2.8-4.3c1.2-0.5,2.7-0.3,3.5,0.8c0.6,0.7,0.7,1.6,0.6,2.5
				c-0.1,1.1-0.5,2-1.2,2.8c-0.8,0.9-1.7,1.4-2.9,1.4c-1.5,0-2.5-1-2.7-2.5C81.3,56,81.2,55.8,81.2,55.6z M86.6,53.5
				c0-0.2,0-0.4-0.1-0.7c-0.1-0.6-0.6-0.9-1.2-0.9c-0.7,0-1.1,0.4-1.5,0.9c-0.5,0.7-0.8,1.5-0.9,2.4c-0.1,0.7-0.2,1.4,0,2
				c0.1,0.4,0.4,0.7,0.9,0.8c0.7,0.2,1.2-0.2,1.7-0.7C86.3,56.1,86.5,54.9,86.6,53.5z"/>
			<path fill="#FFFFFF" d="M23.4,52.4c-0.2-0.1-0.4-0.3-0.5-0.4c0.5-1.1,1.8-1.7,2.9-1.3c0.7,0.2,1,0.6,1.1,1.3
				c0.1,0.7-0.1,1.3-0.7,1.7c-0.6,0.4-1.2,0.6-1.8,1c-0.5,0.3-1.1,0.5-1.6,0.8c-0.5,0.3-0.7,1-0.5,1.6c0.2,0.5,0.7,0.8,1.3,0.9
				c0.6,0,1.1,0,1.6-0.4c-0.2-0.4-0.4-0.8-0.2-1.2c0.2-0.6,0.7-1,1.3-0.8c0.5,0.1,0.8,0.7,0.6,1.3c-0.1,0.6-0.5,1.1-1,1.4
				c-1.3,0.8-2.7,0.9-4.1,0.2c-1.6-0.8-1.8-3.2,0-4.1c0.8-0.4,1.6-0.7,2.4-1c0.2-0.1,0.4-0.2,0.6-0.3c0.2-0.1,0.3-0.2,0.5-0.4
				c0.2-0.2,0.2-0.5,0.1-0.8c-0.2-0.3-0.5-0.3-0.8-0.3c-0.4,0.1-0.7,0.3-1,0.6C23.6,52.2,23.5,52.3,23.4,52.4z"/>
			<path fill="#FFFFFF" d="M93.3,53.9c0.2,0.1,0.4,0.3,0.6,0.4c-0.5,0.8-1.1,1.3-2,1.4c-0.3,0-0.6,0-0.8-0.1
				c-1.2-0.2-1.6-1.7-0.8-2.7c0.4-0.5,1-0.8,1.6-1.1c0.5-0.2,1-0.4,1.4-0.7c0.3-0.1,0.5-0.3,0.8-0.6c0.4-0.4,0.5-1,0.3-1.5
				c-0.2-0.5-0.7-0.7-1.2-0.8c-0.6,0-1.1,0-1.6,0.4c0.1,0.1,0.1,0.2,0.2,0.3c0.2,0.5,0.1,1.1-0.3,1.5c-0.3,0.3-0.8,0.4-1.2,0.1
				c-0.4-0.2-0.6-0.7-0.5-1.1c0.1-0.7,0.5-1.2,1.1-1.5c1.4-0.8,2.8-0.8,4.1-0.1c1.5,0.8,1.5,3,0.1,3.8c-0.7,0.5-1.6,0.7-2.4,1.1
				c-0.4,0.2-0.8,0.4-1.1,0.6c-0.1,0.1-0.3,0.3-0.3,0.5c-0.1,0.7,0.4,0.9,1,0.7c0.3-0.1,0.6-0.4,0.9-0.6
				C93.1,54.1,93.2,54,93.3,53.9z"/>
			<path fill="#FFFFFF" d="M51.5,56.6c-0.6,1-1.4,1.8-2.6,2C47,59.1,45.5,58,45.4,56c-0.1-2.2,1.6-4.3,3.6-4.8
				c0.5-0.1,1-0.2,1.5-0.1c1.5,0.3,1.7,1.7,0.9,2.7c-0.6,0.8-1.5,1.2-2.4,1.4c-0.6,0.2-1.3,0.2-1.9,0.3c-0.1,0-0.2,0.1-0.2,0.2
				c0,0.3,0,0.6,0,0.9c0.2,1.3,1.4,1.4,2.2,1c0.6-0.2,1-0.7,1.3-1.1c0.2-0.2,0.3-0.3,0.5-0.1C51.2,56.5,51.3,56.5,51.5,56.6z
				 M47.2,54.9c1.1-0.1,2.1-0.3,2.9-1c0.2-0.2,0.4-0.5,0.4-0.7c0.3-0.8-0.2-1.4-1-1.2c-0.3,0-0.5,0.2-0.7,0.3
				C47.9,52.9,47.5,53.8,47.2,54.9z"/>
			<path fill="#FFFFFF" d="M13.4,13.9c0.3,0,0.6,0,0.9,0c0,0.4,0.1,0.8,0.1,1.2c0.1,1.1,0.2,2.2,0.3,3.3c0.1,1,0.2,2,0.3,3
				c0,0.3,0,0.7,0,1c0,0.6-0.5,1-1.1,1c-0.6,0-1.1-0.3-1.1-0.9c-0.1-0.7,0-1.3,0-2c0-0.7,0.2-1.4,0.2-2.1c0.1-0.8,0.2-1.5,0.2-2.3
				C13.3,15.5,13.4,14.7,13.4,13.9z"/>
			<path fill="#FFFFFF" d="M102.4,19.8c-0.3,0-0.6,0-0.9,0c0-0.3-0.1-0.6-0.1-1c-0.1-1.1-0.2-2.3-0.3-3.4c-0.1-1-0.2-1.9-0.3-2.9
				c0-0.5,0-0.9,0-1.4c0.1-0.6,0.6-0.9,1.2-0.9c0.5,0,1,0.4,1,1c0,0.6,0,1.2,0,1.8c0,0.7-0.1,1.4-0.2,2c-0.1,0.8-0.2,1.5-0.2,2.3
				c-0.1,0.7-0.1,1.4-0.1,2.1C102.4,19.5,102.4,19.6,102.4,19.8z"/>
			<path fill="#FFFFFF" d="M68.9,29.2c0.5-1.2,1-2.4,1.5-3.5c0.5-0.9,1.6-1,2.3-0.2c0.4,0.4,0.5,1.1,0.1,1.6
				c-0.4,0.5-0.9,0.9-1.4,1.3c-0.1,0.1-0.3,0.2-0.4,0.3C70.5,29.2,69.8,29.3,68.9,29.2z"/>
			<path fill="#FFFFFF" d="M2,44.5c37.5,0,75.1,0,112.6,0c0,0,0,0,0,0.1C77,44.6,39.5,44.6,2,44.5C2,44.6,2,44.5,2,44.5z"/>
			<path fill="#FFFFFF" d="M12.6,11.4c0-0.7,0.6-1.2,1.2-1.2c0.7,0,1.3,0.6,1.2,1.2c0,0.6-0.6,1.2-1.2,1.2
				C13.2,12.6,12.6,12.1,12.6,11.4z"/>
			<path fill="#FFFFFF" d="M101.9,21.1c0.7,0,1.3,0.6,1.3,1.2c0,0.6-0.6,1.2-1.2,1.2c-0.7,0-1.2-0.6-1.2-1.2
				C100.7,21.6,101.2,21.1,101.9,21.1z"/>
			<path fill="#FFFFFF" d="M49.3,50c0.4-0.7,0.8-1.4,1.3-2c0.2-0.3,0.4-0.7,0.7-1c0.3-0.4,0.8-0.3,1.1,0.1c0.2,0.2,0.2,0.7,0,0.9
				c-0.3,0.3-0.6,0.6-1,1c-0.3,0.3-0.7,0.6-1.1,0.9C50,50.1,49.6,49.9,49.3,50z"/>
			<path fill="#FFFFFF" d="M116.2,41c1.2-0.8,1.5-1,1.5-1.5c-0.2,0-0.4,0-0.6,0c-0.4-0.1-0.6-0.5-0.5-0.9c0.1-0.5,0.5-0.8,1-0.7
				c0.6,0.1,1,0.7,0.8,1.5c-0.1,0.7-0.6,1.2-1.2,1.6c-0.3,0.2-0.6,0.3-0.9,0.5C116.4,41.3,116.3,41.2,116.2,41z"/>
			<path fill="#FFFFFF" d="M89.7,57.9c0-0.7,0.4-1.1,1-1.1c0.6,0,0.9,0.3,0.9,1c0,0.6-0.5,1.1-1,1.1C90.1,58.9,89.7,58.5,89.7,57.9z
				"/>
			<path fill="#FFFFFF" d="M25,48.7c0-0.6,0.5-1.2,1-1.2c0.6,0,0.9,0.4,0.9,1c0,0.6-0.4,1.1-1,1.1C25.3,49.7,25,49.3,25,48.7z"/>
			<path fill="#FFFFFF" d="M58.3,0"/>
		</g>
	</g>
</g>
</svg>
