<!-- Generator: Adobe Illustrator 19.1.0, SVG Export Plug-In  -->
<svg version="1.1"
	 xmlns="http://www.w3.org/2000/svg" xmlns:xlink="http://www.w3.org/1999/xlink" xmlns:a="http://ns.adobe.com/AdobeSVGViewerExtensions/3.0/"
	 x="0px" y="0px" width="33.8px" height="32.2px" viewBox="0 0 33.8 32.2" enable-background="new 0 0 33.8 32.2"
	 xml:space="preserve">
<defs>
</defs>
<g>
	<g>
		<g>
			<path fill="#FFFFFF" d="M16.7,0C7.5,0,0,6.6,0,14.7c0,4.1,1.9,7.9,5,10.5c-0.7,3.9-5.1,5.5-4.8,6.6C4,33.4,11.4,30,13.2,29.1
				c1.1,0.2,2.3,0.3,3.5,0.3c9.2,0,17.1-6.9,17.1-15S25.9,0,16.7,0z M15.5,15.4c0,4-1.8,6.3-5.3,6.7c0,0,0,0,0,0c0,0-0.1,0-0.1,0
				c0,0-0.1-0.1-0.1-0.1v-2c0-0.1,0-0.1,0.1-0.1c1.6-0.9,2.4-2.2,2.4-4.2h-2.4c-0.1,0-0.2-0.1-0.2-0.2v-5.1c0-0.1,0.1-0.2,0.2-0.2
				h5.1c0.1,0,0.2,0.1,0.2,0.2L15.5,15.4L15.5,15.4z M24.6,15.4c0,3.9-1.6,5.9-5.3,6.7c0,0,0,0,0,0c0,0-0.1,0-0.1,0
				c0,0-0.1-0.1-0.1-0.1v-2c0-0.1,0-0.1,0.1-0.1c1.6-0.9,2.4-2.2,2.4-4.2h-2.4c-0.1,0-0.2-0.1-0.2-0.2v-5.1c0-0.1,0.1-0.2,0.2-0.2
				h5.1c0.1,0,0.2,0.1,0.2,0.2V15.4z"/>
		</g>
	</g>
</g>
</svg>
