<!-- Generator: Adobe Illustrator 19.1.0, SVG Export Plug-In  -->
<svg version="1.1"
	 xmlns="http://www.w3.org/2000/svg" xmlns:xlink="http://www.w3.org/1999/xlink" xmlns:a="http://ns.adobe.com/AdobeSVGViewerExtensions/3.0/"
	 x="0px" y="0px" width="29px" height="22.7px" viewBox="0 0 29 22.7" enable-background="new 0 0 29 22.7" xml:space="preserve">
<defs>
</defs>
<g>
	<path fill="#4CC3C7" d="M6.6,22.7c-2,0-3.6-0.7-4.8-2.1C0.6,19.3,0,17.4,0,15.1c0-2.8,0.9-5.5,2.7-8C4.5,4.5,7.3,2.1,11,0l2.4,2.8
		c-1.9,1.6-3.5,3-4.8,4.4c-1.3,1.4-2,2.6-2.1,3.7l0.3,0.2c0.4-0.3,0.9-0.5,1.7-0.5c1.2,0,2.2,0.5,3,1.6c0.8,1,1.2,2.4,1.2,4.2
		c0,1.8-0.6,3.3-1.7,4.5C9.9,22.1,8.4,22.7,6.6,22.7z M22.2,22.7c-2,0-3.6-0.7-4.8-2.1c-1.2-1.4-1.8-3.2-1.8-5.6
		c0-2.8,0.9-5.5,2.7-8c1.8-2.5,4.6-4.9,8.3-7L29,2.8c-1.9,1.6-3.5,3-4.8,4.4c-1.3,1.4-2,2.6-2.1,3.7l0.3,0.2
		c0.4-0.3,0.9-0.5,1.7-0.5c1.2,0,2.2,0.5,3,1.6c0.8,1,1.2,2.4,1.2,4.2c0,1.8-0.6,3.3-1.7,4.5C25.5,22.1,24,22.7,22.2,22.7z"/>
</g>
</svg>
