<!-- Generator: Adobe Illustrator 19.1.0, SVG Export Plug-In  -->
<svg version="1.1"
	 xmlns="http://www.w3.org/2000/svg" xmlns:xlink="http://www.w3.org/1999/xlink" xmlns:a="http://ns.adobe.com/AdobeSVGViewerExtensions/3.0/"
	 x="0px" y="0px" width="14.4px" height="14.4px" viewBox="0 0 14.4 14.4" enable-background="new 0 0 14.4 14.4"
	 xml:space="preserve">
<defs>
</defs>
<path d="M14.4,2.4C14.4,1.1,13.2,0,12,0H2.4C1.1,0,0,1.1,0,2.4V12c0,1.3,1.1,2.4,2.4,2.4h4.8V8.9H5.4V6.6h1.8V5.6
	c0-1.6,1.2-3.1,2.7-3.1h1.9V5H9.9C9.7,5,9.4,5.2,9.4,5.6v1h2.4v2.4H9.4v5.4H12c1.3,0,2.4-1.1,2.4-2.4V2.4z"/>
</svg>
