<!-- Generator: Adobe Illustrator 19.1.0, SVG Export Plug-In  -->
<svg version="1.1"
	 xmlns="http://www.w3.org/2000/svg" xmlns:xlink="http://www.w3.org/1999/xlink" xmlns:a="http://ns.adobe.com/AdobeSVGViewerExtensions/3.0/"
	 x="0px" y="0px" width="15.8px" height="12.8px" viewBox="0 0 15.8 12.8" enable-background="new 0 0 15.8 12.8"
	 xml:space="preserve">
<defs>
</defs>
<g>
	<path d="M15.8,1.5C15.2,1.8,14.6,2,13.9,2c0.7-0.4,1.2-1,1.4-1.8C14.7,0.6,14,0.9,13.3,1
		c-0.6-0.6-1.4-1-2.4-1C9.1,0,7.7,1.4,7.7,3.2c0,0.3,0,0.5,0.1,0.7C5.1,3.8,2.7,2.6,1.1,0.6c-0.3,0.5-0.4,1-0.4,1.6
		c0,1.1,0.6,2.1,1.4,2.7c-0.5,0-1-0.2-1.5-0.4v0c0,1.6,1.1,2.9,2.6,3.2C3,7.8,2.7,7.8,2.4,7.8c-0.2,0-0.4,0-0.6-0.1
		C2.2,9,3.4,10,4.8,10c-1.1,0.9-2.5,1.4-4,1.4c-0.3,0-0.5,0-0.8,0c1.4,0.9,3.1,1.4,5,1.4c5.9,0,9.2-4.9,9.2-9.2l0-0.4
		C14.8,2.7,15.3,2.2,15.8,1.5"/>
</g>
</svg>
