<?xml version="1.0" encoding="utf-8"?>
<!-- Generator: Adobe Illustrator 18.0.0, SVG Export Plug-In . SVG Version: 6.00 Build 0)  -->
<!DOCTYPE svg PUBLIC "-//W3C//DTD SVG 1.1//EN" "http://www.w3.org/Graphics/SVG/1.1/DTD/svg11.dtd">
<svg version="1.1" id="Layer_1" xmlns="http://www.w3.org/2000/svg" xmlns:xlink="http://www.w3.org/1999/xlink" x="0px" y="0px"
	 viewBox="0 0 13 13" enable-background="new 0 0 13 13" xml:space="preserve">
<g>
	<path d="M6.5,13C2.9,13,0,10.1,0,6.5S2.9,0,6.5,0S13,2.9,13,6.5S10.1,13,6.5,13z M6.5,3C4.6,3,3,4.6,3,6.5
		S4.6,10,6.5,10S10,8.4,10,6.5S8.4,3,6.5,3z"/>
</g>
<g>
	<path d="M27.5,13c-3.6,0-6.5-2.9-6.5-6.5S23.9,0,27.5,0S34,2.9,34,6.5S31.1,13,27.5,13z M27.5,3
		C25.6,3,24,4.6,24,6.5s1.6,3.5,3.5,3.5S31,8.4,31,6.5S29.4,3,27.5,3z"/>
</g>
</svg>
