<svg style="display: none;"><symbol viewBox="0 0 18.8 10.1" id="shape-icon-down"><title>icon-down</title>  <polyline fill="none" stroke-width="2" stroke-miterlimit="10" points="18.2,0.7 9.4,8.7 0.7,0.7 "/> </symbol><symbol viewBox="0 0 14.4 14.4" id="shape-icon-facebook"><title>icon-facebook</title>  <path d="M14.4,2.4C14.4,1.1,13.2,0,12,0H2.4C1.1,0,0,1.1,0,2.4V12c0,1.3,1.1,2.4,2.4,2.4h4.8V8.9H5.4V6.6h1.8V5.6
	c0-1.6,1.2-3.1,2.7-3.1h1.9V5H9.9C9.7,5,9.4,5.2,9.4,5.6v1h2.4v2.4H9.4v5.4H12c1.3,0,2.4-1.1,2.4-2.4V2.4z"/> </symbol><symbol viewBox="0 0 15.7 15.7" id="shape-icon-instagram"><title>icon-instagram</title>  <g> <path d="M2,0h11.7c1.1,0,2,0.8,2,2v11.7c0,1.2-0.9,2-2,2H2c-1.1,0-2-0.8-2-2V2C0,0.8,0.9,0,2,0L2,0z M11.4,1.7
		c-0.4,0-0.7,0.3-0.7,0.7v1.7c0,0.4,0.3,0.7,0.7,0.7h1.8c0.4,0,0.7-0.3,0.7-0.7V2.4c0-0.4-0.3-0.7-0.7-0.7H11.4L11.4,1.7z M13.9,6.6
		h-1.4c0.1,0.4,0.2,0.9,0.2,1.3c0,2.6-2.2,4.7-4.9,4.7C5.2,12.7,3,10.6,3,8c0-0.5,0.1-0.9,0.2-1.3H1.7v6.6c0,0.3,0.3,0.6,0.6,0.6
		h10.9c0.3,0,0.6-0.3,0.6-0.6L13.9,6.6L13.9,6.6z M7.9,4.8c-1.7,0-3.1,1.4-3.1,3.1s1.4,3.1,3.1,3.1c1.7,0,3.1-1.4,3.1-3.1
		S9.6,4.8,7.9,4.8z"/> </g> </symbol><symbol viewBox="0 0 16.6 12" id="shape-icon-mail"><title>icon-mail</title>  <g> <g> <g> <path d="M0.3,0.3l7.1,5.6c0,0,0.4,0.4,0.8,0.4c0.5,0,0.7-0.1,0.9-0.3l7.2-5.6c0,0,0-0.4-0.8-0.4H0.9C0.9,0,0.5,0.1,0.3,0.3z"/> <polygon points="0,1.3 6,6.6 0,11.1 			"/> <polygon points="10.5,6.7 16.6,1.5 16.6,11.1 			"/> <path d="M6.4,7.5c0,0,1,1.1,1.9,1.1c0.9,0,1.8-1.1,1.8-1.1L16,12H0.4L6.4,7.5z"/> </g> </g> </g> </symbol><symbol viewBox="0 0 15.8 12.8" id="shape-icon-twitter"><title>icon-twitter</title>  <g> <path d="M15.8,1.5C15.2,1.8,14.6,2,13.9,2c0.7-0.4,1.2-1,1.4-1.8C14.7,0.6,14,0.9,13.3,1
		c-0.6-0.6-1.4-1-2.4-1C9.1,0,7.7,1.4,7.7,3.2c0,0.3,0,0.5,0.1,0.7C5.1,3.8,2.7,2.6,1.1,0.6c-0.3,0.5-0.4,1-0.4,1.6
		c0,1.1,0.6,2.1,1.4,2.7c-0.5,0-1-0.2-1.5-0.4v0c0,1.6,1.1,2.9,2.6,3.2C3,7.8,2.7,7.8,2.4,7.8c-0.2,0-0.4,0-0.6-0.1
		C2.2,9,3.4,10,4.8,10c-1.1,0.9-2.5,1.4-4,1.4c-0.3,0-0.5,0-0.8,0c1.4,0.9,3.1,1.4,5,1.4c5.9,0,9.2-4.9,9.2-9.2l0-0.4
		C14.8,2.7,15.3,2.2,15.8,1.5"/> </g> </symbol><symbol viewBox="0 0 16 10.7" id="shape-page-list"><title>page-list</title>  <rect y="4.3" width="16" height="2"/> <rect width="16" height="2"/> <rect y="8.7" width="16" height="2"/> </symbol><symbol viewBox="0 0 13 13" id="shape-reactor"><title>reactor</title> <g> <path d="M6.5,13C2.9,13,0,10.1,0,6.5S2.9,0,6.5,0S13,2.9,13,6.5S10.1,13,6.5,13z M6.5,3C4.6,3,3,4.6,3,6.5
		S4.6,10,6.5,10S10,8.4,10,6.5S8.4,3,6.5,3z"/> </g> <g> <path d="M27.5,13c-3.6,0-6.5-2.9-6.5-6.5S23.9,0,27.5,0S34,2.9,34,6.5S31.1,13,27.5,13z M27.5,3
		C25.6,3,24,4.6,24,6.5s1.6,3.5,3.5,3.5S31,8.4,31,6.5S29.4,3,27.5,3z"/> </g> </symbol></svg>